<mxfile host="drawio.corp.amazon.com" modified="2023-11-03T17:26:31.207Z" agent="Mozilla/5.0 (Macintosh; Intel Mac OS X 10.15; rv:109.0) Gecko/20100101 Firefox/118.0" etag="FDlZbTZ7Cc3Clx987hd1" version="21.7.4" type="device" pages="2">
  <diagram name="Page-1" id="-2eKMECYIs0j0shpPyaP">
    <mxGraphModel dx="2954" dy="1154" grid="1" gridSize="10" guides="1" tooltips="1" connect="1" arrows="1" fold="1" page="1" pageScale="1" pageWidth="850" pageHeight="1100" math="0" shadow="0">
      <root>
        <mxCell id="0" />
        <mxCell id="1" parent="0" />
        <mxCell id="1CBPzOkMhWDjjf77hLW--1" value="AWS Cloud" style="sketch=0;outlineConnect=0;gradientColor=none;html=1;whiteSpace=wrap;fontSize=12;fontStyle=0;shape=mxgraph.aws4.group;grIcon=mxgraph.aws4.group_aws_cloud;strokeColor=#AAB7B8;fillColor=none;verticalAlign=top;align=left;spacingLeft=30;fontColor=#AAB7B8;dashed=0;" parent="1" vertex="1">
          <mxGeometry x="62" y="350" width="898" height="840" as="geometry" />
        </mxCell>
        <mxCell id="1CBPzOkMhWDjjf77hLW--2" value="VPC" style="points=[[0,0],[0.25,0],[0.5,0],[0.75,0],[1,0],[1,0.25],[1,0.5],[1,0.75],[1,1],[0.75,1],[0.5,1],[0.25,1],[0,1],[0,0.75],[0,0.5],[0,0.25]];outlineConnect=0;gradientColor=none;html=1;whiteSpace=wrap;fontSize=12;fontStyle=0;container=1;pointerEvents=0;collapsible=0;recursiveResize=0;shape=mxgraph.aws4.group;grIcon=mxgraph.aws4.group_vpc;strokeColor=#248814;fillColor=none;verticalAlign=top;align=left;spacingLeft=30;fontColor=#AAB7B8;dashed=0;strokeWidth=2;" parent="1" vertex="1">
          <mxGeometry x="110" y="390" width="390" height="170" as="geometry" />
        </mxCell>
        <mxCell id="1CBPzOkMhWDjjf77hLW--4" value="&lt;div&gt;&lt;font color=&quot;#8c4fff&quot;&gt;Observability&lt;/font&gt;&lt;/div&gt;&lt;div&gt;&lt;font color=&quot;#8c4fff&quot;&gt;Collector&lt;/font&gt;&lt;br&gt;&lt;/div&gt;" style="rounded=0;whiteSpace=wrap;html=1;fillColor=none;dashed=1;strokeColor=#8c4fff;strokeWidth=2;" parent="1CBPzOkMhWDjjf77hLW--2" vertex="1">
          <mxGeometry x="130" y="40" width="81" height="78" as="geometry" />
        </mxCell>
        <mxCell id="1CBPzOkMhWDjjf77hLW--3" value="Amazon EMR" style="sketch=0;points=[[0,0,0],[0.25,0,0],[0.5,0,0],[0.75,0,0],[1,0,0],[0,1,0],[0.25,1,0],[0.5,1,0],[0.75,1,0],[1,1,0],[0,0.25,0],[0,0.5,0],[0,0.75,0],[1,0.25,0],[1,0.5,0],[1,0.75,0]];outlineConnect=0;fontColor=#232F3E;fillColor=#8C4FFF;strokeColor=#ffffff;dashed=0;verticalLabelPosition=bottom;verticalAlign=top;align=center;html=1;fontSize=12;fontStyle=0;aspect=fixed;shape=mxgraph.aws4.resourceIcon;resIcon=mxgraph.aws4.emr;" parent="1" vertex="1">
          <mxGeometry x="160" y="430" width="78" height="78" as="geometry" />
        </mxCell>
        <mxCell id="1CBPzOkMhWDjjf77hLW--5" value="VPC" style="points=[[0,0],[0.25,0],[0.5,0],[0.75,0],[1,0],[1,0.25],[1,0.5],[1,0.75],[1,1],[0.75,1],[0.5,1],[0.25,1],[0,1],[0,0.75],[0,0.5],[0,0.25]];outlineConnect=0;gradientColor=none;html=1;whiteSpace=wrap;fontSize=12;fontStyle=0;container=1;pointerEvents=0;collapsible=0;recursiveResize=0;shape=mxgraph.aws4.group;grIcon=mxgraph.aws4.group_vpc;strokeColor=#248814;fillColor=none;verticalAlign=top;align=left;spacingLeft=30;fontColor=#AAB7B8;dashed=0;strokeWidth=2;" parent="1" vertex="1">
          <mxGeometry x="110" y="590" width="390" height="170" as="geometry" />
        </mxCell>
        <mxCell id="1CBPzOkMhWDjjf77hLW--20" style="edgeStyle=orthogonalEdgeStyle;rounded=0;orthogonalLoop=1;jettySize=auto;html=1;exitX=1;exitY=0.5;exitDx=0;exitDy=0;entryX=0;entryY=0.5;entryDx=0;entryDy=0;entryPerimeter=0;" parent="1CBPzOkMhWDjjf77hLW--5" source="1CBPzOkMhWDjjf77hLW--6" target="1CBPzOkMhWDjjf77hLW--17" edge="1">
          <mxGeometry relative="1" as="geometry" />
        </mxCell>
        <mxCell id="1CBPzOkMhWDjjf77hLW--6" value="&lt;div&gt;&lt;font color=&quot;#8c4fff&quot;&gt;Observability&lt;/font&gt;&lt;/div&gt;&lt;div&gt;&lt;font color=&quot;#8c4fff&quot;&gt;Collector&lt;/font&gt;&lt;br&gt;&lt;/div&gt;" style="rounded=0;whiteSpace=wrap;html=1;fillColor=none;dashed=1;strokeColor=#8c4fff;strokeWidth=2;" parent="1CBPzOkMhWDjjf77hLW--5" vertex="1">
          <mxGeometry x="130" y="40" width="81" height="78" as="geometry" />
        </mxCell>
        <mxCell id="1CBPzOkMhWDjjf77hLW--17" value="&lt;div&gt;Amazon Opensearch&lt;/div&gt;&lt;div&gt;Ingestion Pipeline&lt;br&gt;&lt;/div&gt;" style="sketch=0;points=[[0,0,0],[0.25,0,0],[0.5,0,0],[0.75,0,0],[1,0,0],[0,1,0],[0.25,1,0],[0.5,1,0],[0.75,1,0],[1,1,0],[0,0.25,0],[0,0.5,0],[0,0.75,0],[1,0.25,0],[1,0.5,0],[1,0.75,0]];outlineConnect=0;fontColor=#232F3E;fillColor=#8C4FFF;strokeColor=#ffffff;dashed=0;verticalLabelPosition=bottom;verticalAlign=top;align=center;html=1;fontSize=12;fontStyle=0;aspect=fixed;shape=mxgraph.aws4.resourceIcon;resIcon=mxgraph.aws4.elasticsearch_service;" parent="1CBPzOkMhWDjjf77hLW--5" vertex="1">
          <mxGeometry x="276" y="40" width="78" height="78" as="geometry" />
        </mxCell>
        <mxCell id="1CBPzOkMhWDjjf77hLW--7" value="VPC" style="points=[[0,0],[0.25,0],[0.5,0],[0.75,0],[1,0],[1,0.25],[1,0.5],[1,0.75],[1,1],[0.75,1],[0.5,1],[0.25,1],[0,1],[0,0.75],[0,0.5],[0,0.25]];outlineConnect=0;gradientColor=none;html=1;whiteSpace=wrap;fontSize=12;fontStyle=0;container=1;pointerEvents=0;collapsible=0;recursiveResize=0;shape=mxgraph.aws4.group;grIcon=mxgraph.aws4.group_vpc;strokeColor=#248814;fillColor=none;verticalAlign=top;align=left;spacingLeft=30;fontColor=#AAB7B8;dashed=0;strokeWidth=2;" parent="1" vertex="1">
          <mxGeometry x="110" y="790" width="390" height="170" as="geometry" />
        </mxCell>
        <mxCell id="1CBPzOkMhWDjjf77hLW--21" style="edgeStyle=orthogonalEdgeStyle;rounded=0;orthogonalLoop=1;jettySize=auto;html=1;exitX=1;exitY=0.5;exitDx=0;exitDy=0;entryX=0;entryY=0.5;entryDx=0;entryDy=0;entryPerimeter=0;" parent="1CBPzOkMhWDjjf77hLW--7" source="1CBPzOkMhWDjjf77hLW--8" target="1CBPzOkMhWDjjf77hLW--16" edge="1">
          <mxGeometry relative="1" as="geometry" />
        </mxCell>
        <mxCell id="1CBPzOkMhWDjjf77hLW--8" value="&lt;div&gt;&lt;font color=&quot;#8c4fff&quot;&gt;Observability&lt;/font&gt;&lt;/div&gt;&lt;div&gt;&lt;font color=&quot;#8c4fff&quot;&gt;Collector&lt;/font&gt;&lt;br&gt;&lt;/div&gt;" style="rounded=0;whiteSpace=wrap;html=1;fillColor=none;dashed=1;strokeColor=#8c4fff;strokeWidth=2;" parent="1CBPzOkMhWDjjf77hLW--7" vertex="1">
          <mxGeometry x="130" y="40" width="81" height="78" as="geometry" />
        </mxCell>
        <mxCell id="1CBPzOkMhWDjjf77hLW--16" value="&lt;div&gt;Amazon Opensearch&lt;/div&gt;&lt;div&gt;Ingestion Pipeline&lt;br&gt;&lt;/div&gt;" style="sketch=0;points=[[0,0,0],[0.25,0,0],[0.5,0,0],[0.75,0,0],[1,0,0],[0,1,0],[0.25,1,0],[0.5,1,0],[0.75,1,0],[1,1,0],[0,0.25,0],[0,0.5,0],[0,0.75,0],[1,0.25,0],[1,0.5,0],[1,0.75,0]];outlineConnect=0;fontColor=#232F3E;fillColor=#8C4FFF;strokeColor=#ffffff;dashed=0;verticalLabelPosition=bottom;verticalAlign=top;align=center;html=1;fontSize=12;fontStyle=0;aspect=fixed;shape=mxgraph.aws4.resourceIcon;resIcon=mxgraph.aws4.elasticsearch_service;" parent="1CBPzOkMhWDjjf77hLW--7" vertex="1">
          <mxGeometry x="276" y="39.629999999999995" width="78" height="78" as="geometry" />
        </mxCell>
        <mxCell id="1CBPzOkMhWDjjf77hLW--9" value="AWS Glue" style="sketch=0;points=[[0,0,0],[0.25,0,0],[0.5,0,0],[0.75,0,0],[1,0,0],[0,1,0],[0.25,1,0],[0.5,1,0],[0.75,1,0],[1,1,0],[0,0.25,0],[0,0.5,0],[0,0.75,0],[1,0.25,0],[1,0.5,0],[1,0.75,0]];outlineConnect=0;fontColor=#232F3E;fillColor=#8C4FFF;strokeColor=#ffffff;dashed=0;verticalLabelPosition=bottom;verticalAlign=top;align=center;html=1;fontSize=12;fontStyle=0;aspect=fixed;shape=mxgraph.aws4.resourceIcon;resIcon=mxgraph.aws4.glue;" parent="1" vertex="1">
          <mxGeometry x="160" y="630" width="78" height="78" as="geometry" />
        </mxCell>
        <mxCell id="1CBPzOkMhWDjjf77hLW--12" value="" style="shape=image;verticalLabelPosition=bottom;labelBackgroundColor=default;verticalAlign=top;aspect=fixed;imageAspect=0;image=data:image/png,iVBORw0KGgoAAAANSUhEUgAAAvcAAALbCAYAAAB+Ea/2AAAACXBIWXMAAA7EAAAOxAGVKw4bAAAgAElEQVR4nOzdfXxU5Zk38N9132cmQ4iAGCFM3pAipehS1yCEvIC1tluttbZrhKC171u7rev26bqt22398HS73W6frt21rttttz7aSsDYWu1qX7e+ASKKqz5qXUWFvPFSigiRJDPn3NfzxwREyAxJmJkzM/l9Px/+IGfm3FeSycx17nPd1w0QEREREREREREREREREREREREREREREREREREREREREREREREREREREREREREREREREREREREREREREREREREREREREREREREREREREREREREREREREREREREREREREREREREREREREREREREREREREREREREREREREREREREREREREREREREREREREREREREREREREREREREREREREREREREREREREREREREREREREREREREREREREREREREREREREREREREREREREREREREREREREREREREREREREREREREREREREREREREREREREREREREREREREREREREREREREREREREREREREREREREREREREREREREREREREREREREREREREREREREREREREREREREREREREREREREREREREREREREREREREREREREREREREREREREREREREREREREREREREREREREREREREREREREREREREREREREREREREREREREREREREREREREREREREREREREREREREREREREREREREREREREREREREREREREREREREREREREREREREREREREREREREREREREREREREREREREREREREREREREREREREREREREREREREREREREREREREREREREREREREREREREREREREREREREREREREREREREREREREREREREREREREREREREREREREREREREREREREREREREREREREREREREREREREREREREREREREREREREREREREREVEwk7ACIiIqJ829Yeb7RAC4C3Q6VKBTER7YfTLmfwbBDIL+as63sh7DiJxorJPREREZU8bYPpS8anuXL3MVX7pUmemearInCAG36MABABrAAxKziQDLYK9HrjyS+qb+vbG2b8RKPF5J6IiIhK2ta2U+dGveh1Alxa5pkpQ4FCVVOZfDqqMCKIWsFg4Hqg7g4P+Hq8Y8ee/EVONHZM7omIiKhkbWubcYnxIndBBDheQp+OKkQEqrpf/aF31HfueSL7kRJlB5N7IiIiKjm7206tGIpEv+oZ+cukw/gT+0OGE3wrQBC4L9fs6PsHeRB+1gImyhIm90RERFRS9lx8SsXA5NjPVaQlqycevkAQAKLuFzUdfRdk9fxEWcDknoiIiErGU++aWT79FO9Wz5NLk8EJztanowprBM65O+H3fai2E4PZH4RofEzYARARERFlw/3L4Z1c6d2V08QeAESQOr25VL14R24GIRofJvdERERUEk6vrv5riLw7p4n9EZwqItZc0tU+66acD0Y0SizLISIioqLX0159IUTudcd/aHapAgIHpx+tW9t3W76HJzoak3siIiIqat1tNdPh6S4V8cKKocwAg+7AW+rXvPZyWDEQASzLISIioiJ2/3J48PRmFfGgGk4Qqkg4QLTi4Zc+MHNGOEEQpTC5JyIioqI1Lz5jkTFyGYC81NmPKLXBFSASj8a81eEEQZTC5J6IiIiKViCRzrAm7N9k+MJikmeu6l5RfW64wdBExuSeiIiIilJXe/VXIyI1riCyewCqGAgUMLh71/tmsDyHQsHknoiIiIrOjraqShFcmXT5aXs5KiJQACoyZWhy9Gthh0MTE5N7IiIiKjpDohcLpK5gEvujiNGPdF9WtSjsOGjiYXJPRERERcd63uoCKcYZkYh4au3tYcdBEw+TeyIiIioqXe0zL6qImBotlFr7ETinKLMyr2tl9d+EHQtNLEzuiYiIqKgI7Or+ZAHV2o9EBEMOgOCaHauq6sIOhyYOJvdERERUNHraq+cqZF4hz9ofKWJlRuDMtWHHQRMHk3siIiIqGg5oAlBR0LP2R0g6wHrms13ts84POxaaGJjcExERUTFZLkWS2B+SdICI/PDFCxANOxYqfUzuiYiIqGiI6IXFUZBzBFWoSlVsWvwvwg6FSl9xXfoSERHRhPViW1XlqeWR3+9PFl16n6I6eMCfOvWMzucSYYdCpYsz90RERFQUyqy9IuEAFMli2jdRRdRKbEpk311hh0Kljck9ERERFQUxaEu6Am+BmY4IEk6hai7c1j5rZdjhUOlick9ERERFQRWNQRFO2r9BAAEM5LrdbadWhB0NlSYm90RERFTwuttq5kLEFGVJzlEi1ixMWO+zYcdBpYnJPRERERU8jQQLABRnSc5Rkg6IRbyv966M14QdC5UeJvdERERU8ASyMOwYskYVA4EiMPihtrH3PWUXk3siIiIqeKp4a9gxZI0IFABUzu2NnNIUdjhUWpjcExERUUF7ZTliApkdchhZZ0SgWnYLd66lbGJyT0RERAXNzTg5qoK6sOPINqcKa8zs2MnV3w07FiodTO6JiIiosPnRmChKb/GpCHyngGLV9lWzzg47HCoNTO6JiIiooEXKpG5SxJRmziICFYkK5Kthh0KloTT/UIiIiKhkqHqNQQn0t09LgSkRe2Ff+6zzww6Fih+TeyIiIipoxgStgQs7ilxS7E8qAjE/3tU+Y0bY0VBxY3JPREREBU0hi10JT9wf2phLIVMS8L4ccjRU5JjcExERUUEr9+zskp64P4KKfGx7W9WCsOOg4sXknoiIiApW9+VViwIAKOWa+yNYkXIvam4NOw4qXkzuiYiIqGAZ3ywKnB4uXckt7RHoxnyMlE7gFBFjF3VfHv9YiGFQEWNyT0RERAXLWTQH+Zu0f6J2TW8zoBttWBm+CAYDhapc/0rbqVUhRUFFzAs7ACIiIqJ0VM08IPcz91YAP9AtAOCM/VMN3CsQxHI6aAYRI3UaMVcC+MewYihm2gbzh6FTyv2pXrlLBDVOylpg3NsUMh+Q+Qp943ersl+h24ziSWfcw1bspsn9/f3T7n5tvwBFt9wjzDtPRERERGltXzV1mmjFYxCZm+uxogZIBMG76jp2/AYAutqrvwaRv8n1uJkIFDrkn1H3413PhRlHsdDl8HpnVZ+tCJYBdokazBXonJi1U5wqHACnqX9HEqSuHY0A3uE7J3gBcE/AacfurTvuW7QFfhjf03gwuSciIqKCtP2DM+ZIWeRRiFTmeqxJVnAw2H9y/ZrX9gHAswsQPent1a9BJLTZ+1SS5p6pXdP3R2HFUOjuaIM5x85c5Enkkyq60ohUZKVtqqbuFlkBAueeicjB985as68rC2fOOSb3REREVJC6L6tapJ59FJCcrhEUAKp6sK6jd/KRX++6fNa7Lewv81jz/2aqgMCp4sP1Hb0/CimKgtK14tQ5sN6ZqnKWAM2ALDspamJDgSLhcDgpzxpVGCOwAHzn/gF+3+raTgxmb4DsY809ERERFSYrcyNGTDLHVc9WgADywNFfr7t9x6962qvXiMiqUPL7VJJqRPRrACZscr+9rWqBeNIOkZVQqQIQMyLeod/JgYR7I6HP9toMETincCIQMV8UGz//8Ya+pYVcpsPknoiIiAqULMlHe3srQJDEgyMdU5P8OlzkYohU5D6SkQJQlEdM3fb2+NfrO/quCyWGPOq9Mj59KOnXeM7OVivvFMWlJ0VtPDE8M69QpFYjHCHXbVIP7SCsCrFm0Yx58c5n5/StOKMTidwOPD4syyEiIqKC1N1e/YiINOa6XUm5J9jvJ5bMWbNr84hxXB7/ekTMFxMh9k0RqBNBc83tvZvCiyI3drRVVQ569kIP8n4VXQhghhWZAqQWvxba9mWeAH7S/1zdHTu/HXYsI2FyT0RERAWpq716CCLRXI8jUGfVzYx37NiT7jE97fEdKqYq1ERT3X21fX3vlwcLtyTkeF68ANHoyVPLNZhUZTz7QXH6ofKIne+7QzPzRSB1NwUDA6+dUtu5f2/Y4RyNZTlERERUcHa1z5hRFjXR/QnNx1TkttfNUMYSCxF8yKnem4+LjXSsmAt7Z818N7DrvrBiGI9X3z912r7o5GURT1odsBCqcyMRM8cA8I3gdd+h2OabB30FvJNuAPZ/OOxYjsbknoiIiArOoESWmTzlfKrowat7M3ZAqV7T95uulfFNEFmW+4hG5gAovE4Ak4/32DBdD5iPLEfUq5nxQbjIxwcMzvNUUrtBqQJi4L+pxKm4EntIqoURRJq2r5o67VD71ELB5J6IiIgKjije4edjNS0AEbx8+s+PvzjSauKTgZY9C5FQ8idVhWelvKu9+qa6jt7PhBHDSJ56F8pPPqVqAWAWQGQJgJaYlYXGCBJQ+Io3WlTmevFrvogA0BojZTUACiq5z2nfWCIiIqJxEV3m52kBqwL/M5rHVa/b84IqPl9mcx1RGiIYrmC54pX2WfNDigIAoA3wtq+svrCrvapj+qnVr0DsgzByC0T+HCILBx1wMOlSif1w7KUmaiSmgZ0WdhxH48w9ERERFZQXL0AUkCrN9oZEaQRwz432sf1B77+JxD8JMWfmMqa0BPBEpijwVQBt+Rjy/uXw5s2KV6n1awK1Cy3wvh6YCys8Y4YCSSXwI/2aSjChLwZM7omIiKigeBWnzBYgqnlKDm3gPzPax57RiUTP5bLaKTpzGVMmvgIxay/tbpu1qrZzx5pcjfNKW/wszzMXQ/SCAKiBRmZERKKHNoJ9PZmXxc40RkzuiYiIqKCYaFkNHGL5SRzV1a37/ctjeUbN7b13drfHNxtjFgch9W4c8gF45sY9F59yT+U9f+g/0fM99a6Z5TOmSXkQ0TMDtR8SyKrJERMbChS+yuGaef/I75eJfUFick9ERESFxekcFZPzlpNGAOcw6ln7I0UGg/clJ8mLQGqzpfxTAJg+ODl6LYDrx3OGV9pnzfeAFoEsVZH5SeiCSdZM8xXwHfB60r1RWsMSm6LBBbVERERUUAzk9Hykkp4AKvrAeJ5bddeu3eq7r2c5pNEb7jyjYv52d9upFaN5yvWA2b3i1Dk97dWru9qruyNifwex33NiPqaKJsBMGwiA5KHNpJjQZ5Rw6gDN2EI1DJy5JyIiooKigoV5Se6NIJH0/2u8zw+GDv6bZys+pSKzsxfVGKjCGjGDkeivX7wAy49u5/lK26lVJhI5U5ycKUAzjLZYz1ZFVJEIUn3zD2MiP2ai2G0D2R12HEdjck9EREQFRSAL8lHK7glQ4ZIPjPf5p9392r6utrJPlk8q+/VBP4Ti+zdaYzZOOrn6Zy+t8D8fAWCsOc+pWSHAQiiiaiSaik7wehhxligFdva9vKMv7DiOxss0IiIiKhiPN8CreVtNMpGHHveiur+2o3fqiZ6nuz3eKcZc6kLMm60A5V4qrUs6IOEULk87/E5ERgBV/Xbtmt7PhR3L0VhzT0RERAWj6vTqs6N2uDtLjjnRcS2mPYZvrnNO92TlXOMUKHAgqTiQVAwGCpeu9zxlRZkRJJIHbwg7jpEwuSciIqKCoTq8M22Oa8AFgChGvXlVJrWdPVsBWWuYTE8IVoCBpPvtWzpf7Qo7lpEwuSciIqKCoQbv9PNU32Kg/y9b56rr6LnaOfcyE6vSFzgFhvxrwo4jHb4GiYiIqGCISFM+1nyqqq9AVmdereJPLWfvS5/oL3Z37Xo+7DDSYXJPREREBaG7rWa6Qqbko94egkSgsi2bp4yv7Xvad8Ed2TwnFRaBOqtYvWgL/LBjSYfJPRERERUEtcECAPnpua4YjAweyOrMvQBOnX9dNs9JhSNqAFX9QXVH36awY8mEyT0REREVBDVmQb7GEqC/+qcH9mb7vHXrfv8yNPjfUWZYJScZuG11HX2fDDuO4+FLj4iIiAqD0zPyMYwVACKP5+r8tfN2rPYDzdn5Kf8UOmgMPh52HKPB5J6IiIhCp20wIlKXj7E8Awj04VydX1bDBYrrBVqwddk0ekYAA/1J9e19vw07ltFgck9ERESh2zEwKybA7HyMFRFBELiHcjlG/dre+xT4DbvnFLfUTrTuJ7Vr+i4PO5bRYnJPREREoUtOORhVoCYfY4kA9et2PJHrccpjg20G+enZT7mhTrcl1f902HGMBZN7IiIiCp2fLJ8SsVKZ63EEQP9QsC3X4wBA5Q/+0J/w5WowwS86AkCg+10iefmcjt27w45nLJjcExERUegiVs7y8tAC0wgA0c05H2jY5IGB/yuKgt3wiEamUFhNvLf+x7s3hh3LWDG5JyIiovAZbQ3ysHmVAIDIYzkfaFjlPX/od4Ivs/Y+HfUF2iWqG9Xpt8W5jSbsn5UqjLrr4h2/Xx9yJOPC5J6IiIjCp7IsyFP1iiDIa5vK+jW9dwbOrYkw60pRBaAPCfxrNemWIDmwdNcLvctxoH81ROa4EKuYygwAuH+q6djxD+FFcWK8sAMgIiIiEjGL85Hc+04PwmFP7kd6swN7+6+eMv2kiyAyJd9jh0udAP1QPQiRx+G722vetuMOWQ33pkcBpmvl5NUQqQorUgAYCtwv6jp2fD7MGE4Uk3siIiIKVe/Kk2uiVjDgu1Qrm9zaiwE/6zvTHs8Zv9y/d/vKim+KyFfzPXa+iaoPwTMO+pAAjzjoC2V7djxf9WscTPecnvb430aN+YtkSLP2qVede84MoGhaXqYTdlUTERERTXB9K2ZdbCL27oQ7/mOz4BlJ4pzazp7BvIx2lO5V8dcUpnRm71UBgRPAKeR5p+6WMt/dNqtz56jvjvS2xy8LxKxLnSuc1FTU+a779VPr17+2L5QAsogz90RERBSqwMjSPKylTXHaV9vZG0piDwCq+l4RPFz8zTG1B9BnBHhSHR5B0L++rnP/mO+IdLfNXOwg3wMQZmK/zw/8C04rgcQeYHJPREREIVPI2fmot7cCOKs537wqk7qOHeu7VsV/IDAfK6YEXwCouj5A1gYOt+7f629deNquhPw7/PGe86UPzJyhXuRBEcSyGOqYRAyQ8OXq0+7YvSmsGLKNyT0RERGF5pXliAFaBUXOZ26tAM65vLXBTMcF7pvWyAchMi3sWEamEMU+AH0q2gXFr9XZn9at63s5WyN0t02Zjoi9X4GYhlWOowrfub+vX7vjR/kfPHeY3BMREVFoYlUzq3yRKs3DMkArAn8wkbcNrNKZvW7n89tXxr8Vs/LVofysMxgd1T0C3CfA3UlfnzGR13fXr8lNqYqLnNRhIQtCS+wBCOT7tWt2fCmUwXOIC2qJiIgoND3ts/7CGPvPfh5qVDxRxG/vLZjcp3vVrJcAOyfv5TmpBQ4JCPoB3Ssqv3GB/rD+jr687Mbatar65pg1Vw3mpzvSMQyAwOlz9Wt7z8j74HnAmXsiIiLKu55VM89V9T7qBFfmY9MiK0CgrqDqqtXhwzD6a0DyU3OuehBwmwT2QYH/eAD3fP2a3VkrtRmNrvZZfymQ0BJ7AFDoEycFB98RyuB5wOSeiIiIck4B09NWMw2e/xEVe52IVDrgUCvFnEsl91if+5FGr27tjvU9q+LrHeT8rJ98uEUlAAfFQ07df9QHO9ZKJ0IrBHplRfXCqJUbEg6hJfZQ7YdJfnh656v7wwkg95jcExERUU7saKuoTJgpjcaitRs4d5LFYkUEQ4EicMO11nlK8qwIjOr9eRlsDExSP+4i7n8Ac+Kz96oOghcEeEbhtgSqG0/r2PlQFsI8YS+vmrnYAzYkHBBeP3sdVOe313XsfiaEwfOmYOrOiIiIqPgpYLatmHW+Z+3nVHWZCDxAoocrb0JK7KIGSPgD1XVr/9CX98GPo2tF9ZWxiNw6OI45dYECwJNAcLsMJtaaRNneWZN2DIY5Q3+0l9pOnhLxJv03xMwJLbFXBXx/RV3nrjvyP3h+ceaeiIiIxu3ZNkSnepV1Psrmiej7u4Erp0Vs7KCvCFSgR5fdhFSOkXBu90ll/sFQBj+OA653LYL41RCzKPMj1QmwRxV9EDwPDX4+aBI/Pf32vQVbYtLdVhNDRH8eMTInrHIcA8DB/etESOwBJvdEREQ0Dq9cfso8cbEPWeBCFdRYyAwjgkCBA4nhxZICFEyRgErXS38oTwCvhR3JMc7oRKJ7lX5JgV8eczDV2eYFp7jHM/69AbSr39fdZ3T+vj/vgY7RixcgCqudRqQpEYQzYx8xgB/g+3UdOz6T98FDwuSeiIiIjuv5i0+pmFIWne4i5j1O5TOTrSwcgsJXHF4Ue3iX2bAWS2YgIl0vT9oxGHYc6dSu2fGr7lXxv1c1V4loAoo+ca7TRAfXxH/4alfY8Y1HbFr8s9bIRb4Lr5d9MnCba/v6Ph3K4CEpvL8+IiIiKgi7206tGLDRZUbkAoVrhMjCMivRpAOcQ1FlEUaD/1PTsePasOM4nhfbqiqjkQE/V5tH5cv2lbP+ImrtPyfz3sQ/RQCour6EYsnctX094UQRDs7cExER0WF6PUzf8/G5vsVnBoE/s5BYqmWlAQAMBcMPLKLEHgBU7e/CjmE0Tu/cuSfsGE5UT/vM8xTmm8kQZ+wV6gb3D54z7969BbeAOteY3BMREU1wr7TPmh8BFjk1S7pf0AvLy+wc6xQJhzdarhRZMn8Mg5Juf1goXmmfNd9BOkQkGl4UbhDOXzERE3uAyT0REdGE9OIFiMamzrwC4l2jgrkOiEHEAIKDfki1FDm0Pzn0XNgxlLpX3j91mgfzMEQqNaSWlzErSATBF2rW7r4n74MXCCb3REREE0B3W00sMP5si2CBmsifGpFVZdZgKFCUXir/hlTtte4phu4yxazvolnlwWTpVEhlmL3sB5PuO3Vrd/1L/gcvHEzuiYiISti2FVXzjbGXq7pLjHhxY7zpCsApMOC7guxsk02eARK+eyDsOEpdcBJuMWLODxShvKYEgAK/OvB03+fzPniBYXJPRERUQp5tO7XiJOumAJGLIfZzFVEzb9BX+CqApjaWOqzEE3sA8ETgi9wfdhylrGtV9VejRi4bCqmX/fDdmZ66jt4/yfvgBYjJPRERUZF7vAHeqW+JnytWPwDYRQI9q8wz0USg6E8cMTs/AZL5o3kGCPzX7ws7jlLVe3n8skDxN2El9in6slVdHtLgBWfi/ZUTERGVAAXMzlVVNb5610L0z4xINDi8oRQ/3g8ROL92TV8k7DhK0cuXVM6bXBH7nyF3/MfmjjoH/52z1+x6IMwoCgln7omIiIpE18pT4mIijU5Naw/kvMmeWShOkXCC4FBPcSb2b6Iqz4cdQyl6pS0+z0bkkSGH0C4oBeojcB+evY6J/ZGY3BMRERUwXQ5ve7zq3RbmUwo5H0BURDwF0O/rG4kVk/pjpH4i+nLIYZQk68mPAZkeYmLvVIMv1K3buSbvgxc4JvdEREQF5Nk2RKd6lXUi0fk+9E+7VFZOidjYYKDwnUKPrqhlUp+ZKDevyqJn2xA9yYv/rMwzZw6F1G3JChA4/Uldx85/yvvgRYDJPRERUQF46QOTZ0SjJ1+pRlc4QZ1AZngCBAD6k5qahmYiPyaqrt+KdIYdR6m4fzm8k7z4TUbMu8NM7J3DT2o7+lbkffAiweSeiIgoJM9ffErF1JMi85NOvhCx9lIASLrhYhIAwaHdpZjTj5JCFAkV7BPFpoj/+jVVna9tCzuqUnHarFmXlVnziSGH0C40A6cv2IH9nxQg1GW8hYzJPRERUZ51rZh5pljv46p6HmAWegZIMlUZN4E6hdsskHuh5vHkYPKJt9y1a3fYcZWSnvaqK1XsrWF1xhEA6nSvJ+798Z8e2BtOFMWBcwFERER5svNDM8sTvvdNI/LnDmDbyvFSBQQOin5R/b968NVv1N0z0Bd2WKVq24qq+dbYRxSYFmIve2c0+cc1HbufDimAosGZeyIiohzb3la1QDzz6WQgV0WteIlDs59M7EdNACh0DxRPiOrDEPOr2o6ezWHHVepevHx6jXX258bItMNlYvmmCoH7FBP70WFyT0RElENd7bO+CJgvQaRCASRC3cmz+BgoFNikqjeUvz503ylVfxiUf4cfdlwTwfMXn1JRFpTdDyOzA4dQ6j3KrCCR9L9cu3bn9/M/enFick9ERJQDvW3xs5wnt0yOmLP6/SOmPJnYH4c6UXRBsBXQuwZeHfzR6T/fuz/sqCaa+5fDm1xedjOMmathlY+pYsjXtXVrd/5d/gcvXkzuiYiIsqx7ZfwrgcgXRKS8PxlOy8BiI3C71eltYmynGxzsqr9rz86wY5rI5sbjNxtjrggUIW1SBYjoEzv368fzPniR47sNERFRlrx4AaJl0+I3xTz7icGQ+oAXDz0IYJ9R3Rz4ie/Vd+65L+yIKKVrZfVV1srNgQuvhExU9/jR3trTbsVgKAEUMc7cExERZYFeD9P9QnydNeYSJvYjE6hTxWaB/tgF2DhJk0/P6Px9f9hx0Ru6Vsx6N4zeEKiEmNi73eqCdzKxHx8m90RERFnQ82L1L62R88Oc7Sw4qhDAh+gehd44+OqO75z+c7B+vkD1rjy5Btb+MrSuOAA8AZIqn65ft+uZ8KIobkzuiYiITlD3ypqvAGBiD6QSesFOVTwh0Pud6G/r1+x4IuywKLPutunxQCY9CEV4+y+ougByTX1H70/yP3jpYHJPRER0Al5ZOXNx1MPqIYcJndgL1FfgPg30xuirwcaevbsSi7awZWXR8GJ3icic0DrjAFDR79St6f1OKIOXkIn7LkRERHSCuttqYohoNyCVYSZF+acAMAigSxUvWAQ/e80P1pzB+vmic/9yeG+pjv8wZu3KsNaKWAGc09/WdvS+M++DlyDO3BMREY2TesGXAFsZWhlD3ilEsU3hbrOavEtksCfe0b8n7Kho/ObGq7+skNASewAInD4kvrw3lMFL0ER4JyIiIsq6PRefUnFwcmwLROaFHUvOqAJAP4B9Iu43vpg29eMAACAASURBVB9897Q7dm8KOSrKkq72WedP8rxfD4S4glZUd6pLNNet+/3LoQVRYjhzT0RENA6JydHGmCfzBoOwI8k+UZeAyEMO7m4T6KbBAzufPv3nSIQdF2XPtvaqCwXmZwOBhraAVlT7rQy9N75uDxP7LGJyT0RENA5JxTVwYUeRLeoAQBRdBsGNiejOf2WP8dLVd9GsSh/meypiAIRUjqMuCIIVtXfsYSelLGNyT0RENA4Ray/yQ+wHfuJS9fMQPK7Q/0Jgf1W7rpszqCXupQ/NnBEE5v6IkXgypItTK4AL9PrZd+zkrsQ5wOSeiIhojHraqxd6RuAX4U60ouo7kbURuBtwAM/PmrRjUDpL5x4EpdfdhhgC7y5AFiSDcEpxogYY8vXb9Wv7/i7vg08QTO6JiIjGKBDMc8XSISe1KLYHqpudcbfP7tjJDYImKi++2oo0+SFutpZw7lf1a/s+F8rgEwSTeyIiojESRY0rgpKciAH8pLvNd/4XTuv8/c6w46HwdK2a9U0j5q98RSiJvQGg6l4eNINteR98gjFhB0BERFR8tCg+P30HqJUWL+Kd90rbqVWPN3BSbyLqWhm/WGD+VxDiFamq2+fEazj99r37QwtiguAfORER0RipSL8IhjdqLVyqChEzp8zidoXZPfOt8fXd87TT79vx09MeZDecCUNws0JMeLsb6SCca69f17UvrAgmkqKYeSAiKlBmhH80ATjfbSuCantABAog1YtfZijMB0VshxeP79q+YuZndTkn+UrdthVV80+K2vjw2otQiKKrdt3OX4QWwATDP2qioyxd2nKRUZme7rgqBjc++vAd+YzpkCVLlsz1JNo02sc7pwlY9Iu4PUNDQ89t2bKlIG6HNrS2VsWSciGg/kjHVdVgwN238emNu/MdWyZNC5tmIIazYMyZxshbnGKOiEyDagWAhAL7jaDHOf0djDy5d+/gpueff2xvLmJZvHjxlIgpu2Tko+IlgoH1jz322AvjPL1pWtJ6qQhiRx9QVWMEL6zftH7jOM+d0fH+/sZCRLykG/rPRx99NOuvIx3Y/6Qtm46Cn7ofgUvN5k8pL7M39sTj3+pZpWug+jP1Dz5Q27k/J69XCs/gwM4ez9aEtoDWChAongtl8AmKyT3REZqamuaIyi0QpE0uRLCvqanpgY0b8594RqTsMhX9GjC6tnXWM05VIfD8SVHPb1667FcwwdUbNmzoy3GoGUUD3CwGl6iO/H0YY0xykrQDWJvn0Ea0ePGy2dbo9SL4IIAYgCggMIc+K4c/NA/91xiBqvrTp8UGWxqX/cu2nsRXe3o2ZbUEIiKRsyG4ZaRj1hpThrLlAMaV3Dc2NlaJ4GYA0449tzVw7joAWU/um9/aXCGQb6hgfjbOJ0ZMkIzWZuNcR5vzs9d3d7VP3SdiphVdej88mz+QdICYqAIfAfQK2JP2d7eX/3vi90Nff8tvXi2IiQA6cfPvQX93u7tTxFwaxms1UECgi0MYesLiLWSiI4iTTxljKkXEpPsHIKZJrQslQKN/JCLIFN9RsXoi4gGIKbTCGPmglUhv89Lm1Q0NDVPC+BYaGxvPtpD3pGqB08YOz+iSMOI7gmle3LyweemyG8s8ecWz5iMiMkVEojK6GTBPBBVi5W9qa72Lsh2cg12Q4feOgeTA4+M9twlMHYDydL+boSBYn7Vv5EiVmK6Q6aN9fR/vn3OKxx9/uCcnsQKAyhqvmD9Fj3wdi3gwMj1qI1+cNHPya92rqm/pXjHz3L72WZXhBUhZ44KboJoIZWxVKKRy+4p41t8HaWTF/LZElFUti1rmGOv9tR6/LjEGz87OQ0jHUJUzx/tcEYFzDs45iNivxMom3YsQ3gM88a4BEMuUIKfuNkhj/qI6hmle2nqTeGaDMfJZhWIUr4s3Gb4Ig3NuMAg06wmmMe5t6Y45F/Rt2bLl4LhPHrGzAURHOhQEAUSC8Zb7ZKSq0wHNSkkOAMBh3Bc4oxHR4MYQy5hzYihw8BUwIh9R6/2XD7Olu7365u62U+eGHRuNX+26XQ8AWG/CqMxJvRdGjcXnQxh9QmJyTzRMI3LLaBI4ETHiMCcPIY1k3ok8+VBCraqwxmtpbmzpyEpUo7RoUWuNGHvlaB+e02DSaGxsjDcvbXnWGHuVKirGmtSPIGFMsCcbsR22fLmnkNnpDrsTrW91OufQHYBjSY/v+znpsmKcqTLGjHhRMVYiAmdydIdh2O692uU793Qux8i74feIQAEoDCB1xshVZbGyF3va43d1rTxl0UttJ4dy149OjACf8kJaBa4KnBSx53a1z2oJJ4KJhck9EYCmxcvOA9A02kROrPxRbiM61uLFi2d7no1mIdmEiCAIAhhrL2tuXLYqC+GNSjSCu6EYxSy4wnqe19jYGM9LYMNaGluWWYn8t4iZ71yATHcXxsB3zmV1fcbCV1+NApK2NEygz5zI+QXpX98C7arYU5GT2/uB6tJsnUtEIE7vz9b5RvL2X+86CKd5vUDOKxEgtRgSgwFgjLnEs5Mei3iTNnS1V9/Uc3l1mHfXaIxqOnq3Jn33LzaUBF9xIKkAZB07NOUek3siAMbq1SLijTqZc1iQ24iOFbGRZcN16lk5n4ikkmzRDzc0NOT8zbalseUSI3K2UzeK7yEVW0TLluU6rkOWNCxZLNZ7UERmAMjazxmQxObNm7O6OLG8vDwmojVpH6D6Pyc0gNG0C1qdouvB7Q/mZObeWjk7GxevhySCxBNZO1kaQSz6bYEbsetTqfE19Q+QMyHy557II93t8ae626uW3c+ErSgYxU3Oaf4XSx/+vDHx7uqqT+R9/AmGf4w04TUvaW4RYy9RHVUDmhSRhbmLKB3zjnSJj6pCgSdE37hgF4FRQZ1Ajul48iaCxZFIZAqAnLXAq6+vjzmRaw1GnzSrKpy4dyIPHXMaG1vPtiK/dC4AcPwYVfWgAs8A6BLBPnWAiE6BoA4qZ4pIxRGPzXpnIueiUyLWTB/pNauqiQCy7UTOL2rOTL/ZjW49kXNnoiqN6X70qroX0C7o6F4/gQv6jTE5T2JOu3X74Pb2WR+NWvwwOYa3kKI2/EtKBApjzMIyYx+cW139XFe7uxOKX9et3ZHTcigav+p1fS90t1f/1ABX5v3lerirmL1654dm3lb1w13jXxdEGTG5pwlPjelUdRjLrLjnWW/hwmWzn376oW25je5Nzk0/q6nbNj6yvmF5/fI39yWfDC8xVb/rGVmV7rnW2GlDiYFpyGFyX1VV1WiNGXXZEzBcuqPIy8y9Eb1XRKapZk7sVTWhqv8I427cvXv3vq1bt/p4oy2pmTt3rldRUTVlcpl+Saz5SxEBFCdUIjOSiAkWi5gR96QRkYQXaNd4z71w4bLZ1rNeEAQjHjcOz4733MdhPM+rHHFcESDQf93w6Prrl9cvH1VNfm+k123dujUv3UHqO3b8aPuq6hUGclGJra/NTAROgYFAAcgCiP0KoF/sXlW9TTS4rqZj50/CDpGOlfDLri4vS1zpQroYjRpZkAjMJQDWhBNB6WNyTxPa0qUtf2ZEqsZa7qKqmDIZ5wH4Qe6iexMjIrNHilNEEKg8AABpyiUub166bK4I0vYZLrNldQBezmbAR/JM2Q/HWm6hqoBBZUNDQ/kJdX45jubG5nuNsVWpLkIjvwZUNQHIf8qAfmrDk+vTLY4dTia37gHwucVnLf5edFJZpxj3u6wHLdKa/i4OBl/tt+NO7ifH3Hmq6Ss2kyI52YympbGlJd1LRAD4TjcAcLkqCTpREvjXqfWagOxswFXEooDMmxyN/Lh7VbwPwA3G4TeJHX3Pn/YgCvJ3N9G8pfPl/d2rqr4cMd5Xw7jblHAA1Hzv2TbceUYnwmnPWeJYc08T1sKFC8sNcDUw8mytqh5Up/tGeu5wrfq7chziYc2Lm88ERo4ztXAQ/5Xp+SL4cabjGpiqEwowg6VLWv/WGKnJUFK0baSvS2oxX9Ta3LUdbW5s/iDEvCdTYg9FvybRvuGRh/50ffrE/hibn9z83EDi4PJAgzuzFe8bTPq7OKJ7n3vuwf5xn9rinZkuxB599OGs34kAAAeX9nsSEQwkDmzKxbjZUrdu1zMa+B+eZMOOJGTDG2QdSDgAJm7EfNMZedDGqzdsa4//ORdTFgb/9YHvJIOR33tzTVVhjJRXRGq+Gcb4EwGTe5qwysvL32Otl6lv/G1qsDlN4g9VzdtiT5X0CxxTiU/koUzPd04zznxrRMefDGawvGF5pTH4ZLrk2YhgKInL0yaTiqgx0dxtGGbMdYc2ZkrD1yD5mY2PPzyu8oItW7bs2bRpU9Zr1I2MvN+BiADOndDOsQZoSXshBteHUe6OPFYitjndupcgCBJPPfXUiBfahaR+3a7/fN33vxR2HAVhOMkPFFDIFIicPckzN/VUV7/e0z7ri1tXxmteWY7Ycc9DOXHa3a/tg+BHoQwugsApRPXS7rbpee2INlEwuacJKTVrH7nVpSk6VOig+sF3RfHwyImfAjDxhoaG8pwGeog1b093yPf9xH//928zlmGI4C2ZjquanCyS9KPuChGpG/lnKAgC9/19+3Y8DsGIi05FJCqamz0FmhubP2iNTdtLX6Fw0I9u2PzIbbkYf7yWLFk2V4yM2E401QHJPDjec8+dOzcqYurSnds5/dV4z31cgvQXLMBvczZultXP2/kPou77oWwWVOCGfIVCohHP+3pU5EUbr763e1X8s33tFdwFNwSxZOIboi7/nXMAQATWSBxejJ1zcoDJPU1IJ0066WvGSNoNilTx3MbHNj4ZqD4uI7YNEYgAMVuRn5aYamanPSZ63BpogZ6X7lgQBIlkUrK7ydLhcZH2tquqO4jA3TB16lRPFDvTPc5aeWsuYoPIjeku7lLx6U83bny44BZ8WfiL0q0RSd3F6R93p5KTT56x4NB5Rjq3FfvweM+dyTnnnFMlQNoLZVHJybi5IKvhajv6PqkOd4bTT7yADb+uhgIFRGIQOQ8wN/oydVdXe/x729+LzJ29KKtmdP6+XyDXxkJ6oQYKGGNWs41q9vEHWmTmzp0bTSaTb7oo2759ewI5ulVeihoamutg7BWZEiRJBO0AMDBwYFPZlPTr4wTBQiC3W9zX19fHAJ2NdL0JnWSsgW5e0vpFY+3CIBh5UyYBngH6s75gtWVp63+IMV76enb9zYbHNjwHwDQ3tfYIcPaIJ1Jkve3o0kWtTSIST/caUFXn1FyHAvy7UmOWpLsodc6hrOwkr3lx80LNtCp2BNZYp9B3pzsuIkg6yckMepkpq1NFdKSXiYgggNvd2LjsTBP4x/3MEid7N2zZMO4FxdlS29HT1rWy+lsQ/C+kL/ua8FKvZDFRK59w02o+0d2u/wm4u50Ev61fsztni/wppaaj99+72uNXQ0ymEtXcSNXeY0519e1A74q8j1/CmNwXmIaGhkprJ8+3FgsM3NsAzBvuvlA5/O+YD+yaeB0A3QvBHjjzshr3LAL3TL/F+qc3bszqzpilIBY1HzcilWmW7iHQ4AcbH9/wAgA89dRT+5qXth4UkRFnFQPJ/U61lZWVUSNIv2GRjNyacO7cudGZp868GcBHMs1QO8imbHejaWxsPBOCy9Ilz8YYJAP5wqEQBOjJcLqsf+iYiHsvYNNe3AWKOzdteuj5bI+bDQI5K90x5xysYAusGXNVSOoVImmfFwS+/+ijD28b42lHJVDUGYxcf+2cgzFyo6gCXubVqqnSIfcvAL6Q8YF5Ure29/Pd7TW/8wTfS06oHpljl0jN5gMiFwHmQoEZ7F416ydu8OD19T95jUl+Dono1wH9oULyW80hgqQDBLiod2X8rOq1fU/mdfwSxuQ+JA0NrVURQZ1EtA6q54jIYhFpjHiR2PBiTejwZi1HztKNlCylvmamAJgtVhYJPCAiOFmA5sbWfhg8pA4/913wJBDZtnnzg5kSqZJ21lktlUbkK4p05TjuoPj6rTd9UfACgBETKjGYjdQFV85meD3PiylQly7pEqC9eemy1je+4qCQaUak6fAutEjbEcgp/O9lO2ar3qeANzZyelO8IvCDYO0jjzx8OHl2Tl9Kl45a61UuWLCg4rnnnsvKot/Ubrxm5LsEw/Elk/6XszFWtjU0NJSLoDLTXSdkKG85EU6RkxaYAGCMzBbJmFjERtuqVkRfyk5U2VHb0fP97pVVPWLMTYCZwxw/jTf9fsUAWu4Ze4WdPOWK7Ssn/2P92r6CuGArSUn7E41gtQBzw3h9CqTciX4awKdCGL4kMbnPo6VLl9bBeVeKwQVGUKOKSmNs+ZHJezKZzNhvPcMHOoBDO5XqoXudECMVAC40Vi4UgQ+43c1LW1+QwNw0EPT/dMuWLRNi2/RDyidJh2LkiyQAgOKB4VKRI74mL0DSJPfQ2Q0NDbFc9mE3xsy3xmKk2ffh72Oh4MjSFXO4gCdTi8fhr//bIxsfyepsSeui1hq18tl0x1Vdvx8MXfumLxr3/EhLgA79bUyrmLYMwH3ZiC8Wi8XgMDfd8cAFXY8P37kpNNba6QCmj2VPhuw5/tqOcZ9Z9I9GXtsyxvOoJhzMthOPKLtq1+78xUsfmLnUi+lqgbmKZTqjIQgU8J27zRvEN8KOppTVdvYMbmuvvKYiMuneg37+03sFYI35s1dWzPz6aet2bct7ACWIyX0ONTQ0eOUor0xGtNETudZ6XpNz7lAbRRw5q3pIrj60h8fzVDUuInETlXMnufJ9S5c2f0lE79y4ceMeFGB9cTY1L25uFJGWTLOePhLHzNiKIEMnGVMzKTEpCiB3yT28tDu7Hu/1kum4c27rhkce/swJBTeCwOqtVkzaCwtVuWfz5s1v6o6jQ/oyyo49l4jAqYPxvHcgS8l9IpGIlnmT0vb1V8XT2RgnF4wx0wCEs0mSIvubcQ0TQVYWpotIwiSDgrwz+Za7du0G8OmeldUbFO5bKlKJfJdBFBGB7nZJ/+q6O3bdEXYsE8Hsjj339bRXbzIijXlPBIY/k63YWwC8I9/DlyK+seRCG0zzOc0fjJWV/9hF8WzU8+6CSJPv+4dnX8OZeXtj3NQW7zLNM95NRu2zLY2tt7YsaUlbqlASrHwOaW7viwg0cD/atGnTE0cfc4F7MV0bdmOkMlmezGmHB4Uuz/o5FTuTwdD7s33epqamC40152XcFCoIvoGjLiQf2fJI2vp2VUXg0i/0HCtjjDd8R2tEIhnr/0NlTDRuxOS9N7iqOhjJ4d2Mkfv2j5UqBl99/dXQF9NmUrO290dOXn+rBHqNqG7jHP7R1Im6bzsz9HYm9vkVaPLzDpr/XYRF4DuFMebcnvaqC/M+fglicp9lTUtaL27pbt0lEftjgVwsItOPTOjDSuqPdiiOVBkPKmHkClizpbGx5Sshh5YTf/zH59VZ612W7rhzzg0kD1470jEj/k5AR9wiW0RgEc3pRZHApN1UaDzU6V593X/75s2bs1pm0dDQ4Bm1aXf8Td2pCu7ZsHnDiDPjzmnadphGstcxx/O9mDEZ3voU+f9wGyXjXNrFtLkkIgkJXE4ues4555zpnk2tNTpRCtefrbUZuVS/5rV9tev6vlPb0XsanPuyKA4ii3/jRUkBqNtvg+S7ajv6Plf/oz1p3w+OtmRJ68LGxta/zGF0E0Ld2t2bRN0xE1x5IQIHwMFe83gDq0pOFH+AWdDQ0DClzJt0mTHmauulWg6mrekuQEfGGfW81U1LWz8qcNdveGTDj1AipTqTYsl7nZO0vxcBniwrK29aurRlhMJ2zBGREX8OqgpYvBPAuHYwPZ7m5uYKz9gK3/dP+PWkqnsB3Abrvrzx6Y1ZT4DK7ORGCN6TMQanP2tuXnaxc+6o7FoOGqAPwDHlMod+Z+ec0zLvscfWn/DssfVsNFMe5SAF22tbYZakSwJV1YnIiBehozq3ajTdolZVDA4Fuallj5jI+aoZ7vRg1BdbnsA8kJ2o8qd2bd/fbf9A5ffNpOgnAHwAwNmahfUHRUX1IKA/KH+977rKezDq96YlS5bM9kz0C9baqwIX/FMuQ5wIBHDbVa6NGGwIofQ+FYPg3aeeHl+MLX0ntNP2RMfk/gS1nNNyCSJyiyqmQGB8P7U+tVgS+6MFQQAjMlvV3NKytPVTe/zB9z3/2GN7w47rRLQsbbkCImdmuuBS4CwB1o14PLU2wkvTbQZGcW6WQz7MObPYIWPic1yq2Kfq32BeN/+y/v+t35fF8N7M6g/T9uLH8OJeY2+GKszR309qDfiI/XIOfe9lFgsAnHBy/7qv/ZMj6T+5LDR929GQCbA4w+Hf7Nzd976ZM2dGx3reDRs2HGxe2vpfgJyLETtJaeLxxx/Oycy9iH1Hpln7gaHXZ8ZiseNOMiSTSbN3796CveuSSf1de3YC+DttwD90nz6rUUS+q2Lys0FeiASAOu1yOvAns9ftHVPr2aYlrReLQYeIlDvnAHUF1SWpWNWv7dvYvar6Tk/k0jASfBGBQG8FcHr+Ry8dTO7HxyxevHh+xEa/ZKy3KlV2k77dYDE5In4DkabpXuzZJQ3N7Y9u2fBAiGGNW319fUwVn0m1T87YhcggQ5la5ufm7kPYwC1OF1aqH7v/b9CjZltFBkWxD4qX1ARPbHxkY8ZNrrKhqbHpKs/Y2YEbeaOsQ/Ei3XvOKP5sVOVMAD8dd5DDJgXquyDwITJiLKrahBy3Nx0v69mawAUjHBE46KatW7cmtm7dOq7Ze4UskjQtYqGauz7jgnPT7hQN7dqyZcv+nI1dYGQLfGzZsR7AGdtW1LzHM+4aB2mEFO7dpPEQAAq3Txx+VLu27+qxPLepqWkOnF3tefaKQ3fJATh1ZtRlPJSZG3j1ao2dfBFE8r6+xzlFLGLndq2MX1m3tu+2fI9fKpjcj0Pz0tZvQHCVQCrCXiCbK4c6+RiRKomaX7Y0Lvv2+k0PFeSOnZlUVVVfaKxtzGbN+pFUFcYaNJ9zzoINjz2W9VaBiky7keq+jY9s+HS2xxyrhoaGShHv8y5zacWJE7w1G6cZsAOJmJT3CVA30nHreeVNS1ov2/jow2uzMV62NC9e3ggZuY2rCCAIHh3vuRvmNEzxrKkIXICjW1IOvxfkZGfaYfNG+mJqkXuQy3EL2ux1Pb9Q4Ffb22bWmYi3CqrXQUzaheDFRKEP2SDxyep1e8ZyJ840LWn5K1HzOTGoOmrRfkLV54aNWVJ/18GdXe0nrwHwsbwPLoLB1IZm173y/qn3nHb3a7m721zCuKB2DBYvXl7TvLTlEWvtX0FREm+ymRx64xSRqPHMXzc3tn53wYIFY77lHybP2O/lKrEH3rgI8k0kU7nEeBkD1KVtg6n6eA7GHLNJ0UnnG5G0feOzR2bPnTv3hF9/r7322qAo0s5EO+cAkRtOdJxsE6tN6jJsXtWPcb8ebOXkRap6TGJ/6NwKu2G8586kubl5Xro6/9TfljyYi3GLhQBudueubXVrev9efHMqNPg/At0J1aKaZAGQaneo2i/qvl23pnf5WBL7hoaGqqalrXd7Ee8bIseuywHUl4gwuc8i8ZM3QDW0fXCMkfleefm5YY1f7Jjcj1JTU+tfRq3+t4hpDIL0pQelKggCGGs/MW3qKb9csmTJjLDjGY2WxpavGWOm5zK5B1IzqVZsc7bPe9ZZLdM1zYZFIgIVbMr2mGPV0NDgKeSmdDv+ZpMYrZs6deoJ3ybeunVrwiH9hZGqwhhULV3S/LVxDmGW1y/Pxe3sd7g0OV0QBP7GpzeOO7nxjGtMd0xEsO/AnofGe+5M1DdpW2CKCALYB3IxbjGq7ewZrOvYcW3/wf1nGBesgLpfCYojyTcABPhPmOTS2o6+z432ecuXL/eaGlu+EouW/4815qJUC+djqSLR39/P5D6Lajt3PwPFv0VDyhJVAYW9KZzRix+T++NZvtxraWz9ZwO5QaGVQOmV4IxGahbNwYicGzHR+8OO53jOOeecKhi5ImO/9SzK1iY8R4pEhqaLIG2trQS6JdtjjlUsUv6NfFxAAYAq6srKyrKSNPuB+/nxNgaz1v5NU1PTmHouL1++3Gte2vrPrsqNWGpyIhSatuWq4MQu9ATyx+l+Hn7SP5ir9pJGdH66Y77vu0cffXBbLsYtZm/76YG9Net23lnX0fcngRtqENVNgLpCbaUp6hK+uo/WdvS+r/b23aNe/7OotbUmmXC/M8asBjAlcwc6STz11FMs38iy/3hr7zWJIIS+90hNspR5iG9fVf3XYYxf7JjcZ7B48bLZTUPux8azfwFMzKT+aKoKMWZBU2Prs80NzSPWLBeCqI1dIWLq0nbHcXoQqi+r6rbR/Es9FiPeolRVQFDZ0NAwJZvfQwSR6UjTltE55zvPbcvmeGPV1NQ0B4KrMl1AqWrfaH/Gw//2pBvPWgvnTNpkcCw2b974W1UctzuHlei9TU3N32psbMxYdrR06dL5Tf+fvXePj6uu8/9f7/fnzGSShraEWtuSlsqGyobaViaXuSbACorKRVYuBRRxAVF0EXEVlkUeqHzxhuB6YVlF5NZSi6KLCvpbL21mJpO04VLZfhH7xVLSUEq3tCGkaeacz/v3xyRtgSTNTGbmc2Zyno9HoZA5n/c7M2fOeZ33530JxT5nD+unLcv6tLPPKWhxX2xFbA4RxuwFT0TQJH+awvIshGPH/WlRd4jo78c3i6IXgpc7ix/a9dTC1dvDBDsM4AeAuGcAm4gNyEPa1u9evLrvJ5M9LBgMzomFYl+qcvBXJmqYZFtp9/zeFcTNN0Oz4GYjD45E2G8DLHLDCx+aM+5EcY+x8Qpqx6GpKV7vU/JHIlo8WjTrMSIktAYzNUqV+iWAd5v26c00Njb6iembE0VmheSGHa+89INZs2ZN6jvQ09MzFAnFNxDRW6KnRASI1Ck1ow5AwTp7MPPxozn9Y7DbcRyzkSrNlxNTzbhRewFee33vcTU1uioPzwAAIABJREFUNTqTyUwqkOD3V5/DgnvHysMWESglbQAKkiIiZK9krnpyvO939vfSIOHPWaw+FQ3HNmpgNZHeIhnZLUrVQyOsFH0YwDwQaogItuPs0TW6oLmqdsBepMQ3/nTlfdSR79rBYHsdQ88eu1CXoKG78117IhoaGvwgjNt2VEB10XDs3smuR0Q1/QN7L9m0adNgYTwsHxauerkbQPeL59ZfK5b9USb1TQ0qaLAhJ0QGWexzU/bLj5+3dvJNGOLx+DLtyKMitIgw/lySQ8l2DXPGHIznMXU0hu4DBb4IjL+LXDwEQjyTqqo+BuBrpbdfvnjifgxiLbFGseQxArs2Mm2SUcGpWK2IheN/3Dc8+IGenh7X3FDrjqi7Z/QhZKwbg9a6b9jmh0ZaBk66bSAzngIwZmqECOr8pOsAbM3T7beuydRK4wdMdo8MpTJCJBKZS0KfA8afRms79lW5Cq2WlshWZalhAGOn3zjqZABfzd3jt9LZ2flULBx/CEQXjPXzQwrKISIBIo75mGNEBKhsTihEoEW/QYSIYJdSKu9hUmP7Yi0iojGLiUUE1gzkLW6qebAOCIxZ25FdH0VJ/6qrqwtgnI5FI+9nPZH6aC5rbtq06dyCOFemLFzbOwTgP38K/Ci0csFnAboIhEagVC0N9ZCAfmft67/06F+8NunrU2tr61xFvitJrJsJzoHWuJPZLSciMOTpvF32mJBFD/1vX++F879nsfq34VLHOQ9cg3HtXy+q+8FxD+6eNm1xp4qXlvMmQk2xNlG8jsDjdinxGImWaAcgOqnKX313MBh0xYNia2vsRGE6+zC59g9s2LAu57QJR+jp8dZkxSwkBe4YQy0TFKru7u7uNnahE1H3MrN/3P7kWj/nSOaBXNe1HPSJjP3AlU1/kpNyXXMiZEhfKyKHLcQb/dy11nAcB47jQGsHowWuh54XRNjlOE5BI/dEtBjjBGO0lh39/Zx3XmyGq2aP10ddRGytx+8sNBX8w36/AIvH+tnBByWZ9B8txdlhKEfOA/Si1X3f3vna9ji0E4fGKhSx+JYAQKTXEf3eY1ZtPysXYR8Lxc622P8kM9+stTPeTuUEtgm2tr3IfRGpX/XSjRlHthlJTBaBX9Ecvw5804T5csUT94cQCUaOZR89RoRpWzibC6Pvj6WsC/z+GaXvhzsGCvgEEdWM99lprfXLr7x0Yz5ri+gJ+9gTUXM+605gcdwCSgYK3lN/ssRCoYgiet+ED1AiD+bz8LEf+3cANK64V0rxihUr5uS67ngkn0z2OZI5Q4sULNIuIrvS6apCt5AbNzcdhF7LGsjbf2YsmSBqv8dxUJT0L12j6y1lFeQeREQQjScKsVYl0fQrDC56aMfGRQ/1XkSZ4XcC+nGI7CloDrXIkBb56aLV2xe+Y/WOSafMNTc310Uj8TtJqUcALBgV9TnfdwmwbdurzygyIvIvRhQREfY7Ah/zFS9cOHf82iCPN+CJ+xHCTfEIVakepglyiD3GRGsNRbgrFIpfaNKPcDh8PCu+YryfZ/OH6RP5TvBUWnZqrcePKoMi+aw7FtFgdJFljTPMlQgZ0Z2FspULwWDQ0vDdMOrHWIhI/+7+3d/OZ/1sepceU0yOpoPVVB1RsPcZANLpdDc5ul2kMEV5RNgFrCts5D47nXccZGtPT0/ekXsSCo+7QUSyO5OZfBQ2N/gUXcBrLZGZ70S5sHDtK1sWreo7HXo4COAagt48JbGWrUnp1rb9gWNWbz8/hyM5Gmr7uN8KdDHxlaMpbfkG0xztoKenZ9xCfI/CEHAyvxE9cYCraBDBFoDhu1E83TopvDcJ2ep85aM1NNKZxIvY50621zvdZrKDjiLf/RP9XGv9vFI676mjGah+mqBgViBN+a79ZshvRSYqCCbSRqKU1Vx9LDON2x6SmeEIbphK60QCPYMxhikBGJ2a3Jrv2uOR7E6mh1/dt1xEtk51LdFS0E45I4zfalVjG6YwOVoIJ46b/iXYXawWg6Q5igLNRxAR2JoO2/3IA1i05pXnF63efsfCVX0niOhLAdmTU8qOCAgAQX60aFVf6+K1L096ivDpp5/uj4bij7Ciu2mkE85UET3176zH4Zm79pUBwPm+ZVAeieCCv50xt2A7t5XMtBf3rUtb5wb8NZ3ENG7XBo/DQ0RgpnnaR/eayL+PhWJnA2g6zM3ih8lkMm/RyTzcL6BxhY5l+fwFG/AlzskTdaHp7Ox8qiB2ckRbtHqsKaaj2I7zXDrd8b0p2dDSOdEDtnDhHqIOZcOzG3YnOzveAcFVEOmWXKeACgZE8BsGHi2kX+96V2y2ZalxO1UIy5+nsj4DE01XLp5gJjmpcLukskfr4qQPVTKLVvf9ZNGq7UcqkpWi5WESmfD6SNl/rM/YdvvC1X2XT9ZOY2OjPxqKX9m/5/XtrPjMQnago2Keox5vYOFDL//AEb2ZDQl8v6KAr1Z914z18sIVRZCmOKa9PWAN658RUUOphh1VMiM50ScFUP0ggFy2aadEO9otm+wwRP9p1I+xeO316n+fip10Or0nFon9Ybz0DdvWASJfA4ApT0oUJhax10PojXdBEradwxeAFoPW1vYYszOotfOnsX5OAEh4yhdeYf6DaDstwDipJrItGAxaPT09RRmNnuhc/4OGhoYfzT1ybqModTURziEau62giGiBPEVa7n5tnzzs8+3fXWi/qqulwXEy3SIYs/OQFh532u7hiEajtRD9hAi9VdSRWBr063zXPjzynEiBBuSQ7KgaIm9CaZ4c/WDfT+VcPNyL+nlk6ZuY6ArnLQ/xomHTZxb9dPsPclk7GIzPq/bht0JYRoRxu5jlAxFBT2JehUfhcDQuqrLwpDaQvTysAb9S5/3torm3v+PBncYntLuZaa1m4+H4rWC6TutJDcnwmAQjwlqLxkWpro68U2A8PNxEc3PzPMsKLFGQOjiwHKHdDsmO7u6EscJmD49i8ddz6uoDgcCNAmohQQAkW8Vx/mXRmpcnXbgafWe0lurUeQK5k4j8kxxGlRMjcxg+mUx2/EdBF/YYl41XwHrba0c/RkTvMeeFXp/O9J2cywyF6ca0VbSRUOQLSvm+7hXPFgnBgLDzzmQy2WfaFQ8PDw+P3PnrRXUzZ+gq/4LVL+VUsBoOt61g6HuIeAVwYG5Bwf3LDrCSf0il1k86798NNDaG6jZvTu/BFGplTLL1/Pr3scJjRoxnNZstjrQf89O+lBEfyoBpmXPf2ho7kUh9xZs8Wxyy/chRS8J5T8308PDw8DDLcQ/u7s9F2C9btqwmGo5/1qf4yVFhDxSvSYXW2haBsWF++RAMBmuOnOXraW1tLdvC0MVreh8n0U8oE+FhIigmixTdZMB62TDtxH0wGLQsxt1E5PdScYrDaMtCgI6NtsbvxDQ8zzw8PDymE5FI/P21M2Z1EPPtWuuch1HlSb/IcN5NEkpNMBisCfhrHiWixRas8TtglQEW6Q/pXJsOFAhbAzU+Pu1v588/04T9cmDaia4qX809zGqFl45TXEYfnNjiK0OhWMiwOx4eHh4eRaC9vd2KhWK3MujXBJwo+q1Tm4vIgOM4ZSPuq/zVdzPzKQAAwvETvfbFi+Y1vXhh/aMvnjevTdphybnu0mvzV+3YJoL7DAXvMWgLlOLvGzBfFrjqZCk20VD0PKX4Yq8zTukQEVjMvw8a7H/v4eHh4VF44k3xejujn2TLug7AlIZR5QWhX2ud8yTsUtPY2OiPRuJ3Wsq64EA6MPEJEx3DWluz/fzBGdW+dS8eveC1Xt/Rv9228uibe1fOO+fFi9/WUAq/D4ei4e8AMmYXr6KTDdAueOGCoy82Yt/lTBtxH41Ga0F0S7EKezzGhogA0X/q6UkWZPqnh4eHh4c70EquJdBSx3FKlYbzJmggO9Xa3dTNnPNpAl3pOM4h+oMWAe3jtiNPrt7Z7YhgICMAOCCg94DoSxpqjTj+P29bWf/0tpULPvfSpfOM5e4fveqVpwTyuKnce4CYCP9iwLrrmTbiHppvUspyxdPudEFEBkTk/yQ6E6ejTLsCeHh4eHi8lfb2dgvMSwADEfsRRMT1QaNwOHax8qnb3hJYJCwKBgf84x13HqBfy+hdb3lXiSwAASYsC1jqtoD2vbLtwgV/ffHCo2/fdtH80/527oIlfR+cX1OUX2YMKMOXm8q9hwBH+HnZixfOv9CIfRczLcR9a2v8TCb6vNcdp3SI4FlHMuFEav0Npn3x8PDw8CgsAwMDfoLMM2WfQBBoV8+ZCLfEPsygux3HeesPRRZVV1ePK+6zr0H3mM9MRNAAhhzBaxkBgRuY6LPQ/FtlUTJzBG94cWX9D7eunPf+jcHiDitduLZ3t9b6estIQkT29xfhu/56OsYcNDhdqfgJtccc0x5Q7NwiLm7pL4ANkUGABolkWOQNUW4/gMDInxq3pxSJiAZRCrtfPj39l7+UTaGTh4eHh0dOWEKYY+yORABr/MWU+cMRCoWOZ+bVNKKz3nzvZua6jL2/BsCe8dYQwRMKeP/hwpICwBGMpKpgDgFzmNAYYN9l/M6j9Yvv1Kug5UEGPxNQQ/1HPbi7oHUKSu1f5ejqa0BU2oe90feUqDYwc8Fngb4vl9S+i6l4cV8/X84h4qVuzLUXkS0C+QU0dWhCr1LOjt2vvtq/efPmbA5hY6PVPGNGbRWq5tgKcyxBo7A+laDeD0KtYfffgoj0a9C/dKbW/6dpXzw8PDw8ioofGvNM7f8TETQpV0buw03xCBH9mgBrPO2RbRntawLwX+Oto8TuIvJl1XuOOALsszVAxIrUxZYPFw/ZMvC6rt6ybeXRTzA5f5SM9YeFa3unPGiy/sHdvdtWzn9Akfq8Y6oRoaLL/3bWrH9/xy/3jvuwNJ1wl9otApFw/H+ZqM60H6OIiCbQbsfJfLKzu/PhfNYIImhVhapvI6LL4JJovtYyoDOZcLonPenx5B4eHh4e5Um8KV5PAfWiqXRXZsau3TuP2Lx5s6t2iGOx2Gxo6gHo2IlelxX3ztcSqcT1471m+wULVmimDQIqXCBWBCACA7AYGNb6GYa+29m77yfPD+wdOHkd7HyX3ray3liSREARhmx9zaLV2+8w44G7qOic+0gk9gVLqTq39LQXka0AfSbRuf5t+Qp7AOhBj51KJ64Wct6hoe8QGX9br9iICATyACk93xP2Hh4eHtMDh7HMqH3HgduEfSQSmSua/kjEEwp7IHvv1JraJnrNsDh7gAJP4B0JBmoRDDsAEy/1K9/tVUce8erfHV3/5LYL59/5wgXzL3vxwre3SK75+jpzqc+QqhzKbhnc/vLKuXPNeOAuKjYtJxQKBUjoWrf0tBfR6aHhff9QyLZdqVRqJ4Br4k3x27QlncRcX6i1Jw9dkkytv6/0dj08PDw8TEEKy4wGzgiuCiY1NjbWkli/JsKKyeoOIkQm+rnWw7uhrN0ACi9YD4h8YCibvgMASwG1lFg0hO0X33n0nm1L8LDj4P53/HR7+nBLBrR+eMjR14J4acH9PRwj6U/7Hd93AKwsuX2XUbGRexbfmeSCdBwRgYj8KNmZCBerH2/Hxo7eocy+d2gtvyrG+mMhgmdIS2uy0xP2Hh4eHtMNgSw3ZZuIQA5tMmX/rbRbR8488nZmappsfZ+IQCmFYLB93D71f7f21X4UOnI/Fm/xl1gAP0Bz/Yo+NbuaO7etPPr1F1cuWPviBfMv3H7BghV9K2vf4vfcta8MAM4Pi+7vWBBlZy0onLb9/AVLjPjgIipW3BNjJQzvTFC2XdWNyc6Oy4ttq6enx06lO86C1l8r5k6FiABa//vQ8OvRjnRHd9EMeXh4eHi4FgYZjdxr4Gljxt9EOCwPsrIuy6VxB42I0YAPTRO9TrQ8a0Sojfwewxp4bVgDRDVE/GFW6kGHqMPGrA0vXrjgsW0XLrjyr+ceFPpp++XvEcTM1GAiKKI6h+VqI/ZdREWK+4aGBj+AM0374Wj9487Ojq+W0KROpBPXO7b8oBgXXREZFKIvJtKJq3t6elw/8tvDw8PDo2g0mjJMRIASV6TlREKxLyjCeXkVFgsg7Jw44WtYb2DTmcWjKTw40HKzFkSLAX5fFfOdMwOzX3nxwgXJF1cu+NQK1M8j0ndUGRlbm/Wv1md96oWLa4zNYHADFSnu3z7n7VcopdhoVEHkWd9eNvL0mOqiqwH6aSEj+CKStrWcnEqt/0bBFvXw8PDwKDsaGxtrWSmYvMfa9n7jbTAjkdjnmOnrwFv72E8GgYA0t074Goe6lXF1PzYCYL8G9mcLcyN+xd8P+ORFrfmCjKmemCLY5wjYnr3ajAPuoCLFPYiNFtIyM0jrT67bvM5QJf86O9m5/nwtzlOFWE1EHk92doS7uhJeGo6Hh4fHNOeII+qWAPkJ2kLgOM6w41Qb7ZQTDsc+zODbpvJ8IyIAywJMoMWOWfPSE4aC4DnhSFboA8QgWmKmQSoAIjhaIEwtWy9YsMKUG6apOHHf2to6l4gWG40oOM7jya7kn4w5MML+YTpDRPIeUCEiux1HfyLZ2XF6If3y8PDw8ChfFKjR5D2WCDuAgWFT9qOt0ZMU+J6sL/krbyICCeqCweCEzT9ez+i+MtD37oEIBKphoqLXO7qVihP3PvG1AeYiCkQE5eC7Roy/iY0bO3odyVyV53bhc0LO33d2Jbxpsx4eHh4eBxF5p9E2mIJdQP7DlqZCczTaCObfF2pKvBBmW9aM2RO9hkknyiF67yYEAEg+btoPU1ScuBeFqEn7WuvdjuU8a9KHQ0mn07/Q2rlvsgJfRGxAHkimOk4Y6aPv4eHh4eFxAGI63qR9Ae0AUPLIfVNT07F+h35LRIWr6ROq80FPGLknzUlVcWqtyIhghqUC285f8DHTrpigok6XdrRbBGow6QMR9uzfv99VnWQGBl+7Wms57AOHiOzJODgrker4CAxFRTw8PDw8XA7BwMDEQ5GdPT09Jb1HLVt2ak2VP/BbYq7PpeXl4WAmiMiED0ssOqFcMIyzrCDCoC0ghVtNu2KCihL3A8EBvwYWmPRBBIMAijKsKl+efvrpPaT1LeNFGkQEAnkerFu7uzt+U2L3PDw8PDzKhGXLltUQMNOoExp515LlQ6g+FDiiZihJ4IZCCvtRxOLghC9gbBu08+m1Ob3Jahue13fh/InbjVYgRoc8FZrq4Wq/+E1HFMgKDARc99CU6Eo8EA3FzyKmD79B5AtsaNzx2r69N23atMlVDyUVBLe2ts5h5joi32xly0xNFBAlNZydYMyaaBCADVC/CO3OZF7vB9BX6uiUR3nQ3t5eu2/fvjmWrq4FZWpZca0WqiFkRYdDjmZWg+zoPRlk+vftU/2bNqV2Iduq2sMjb6qqqmaKoNZoIJno/5XSHC/0rSaiFUUR9iJgQWii11Tx/mFHV28TwuKCGq90Rj4rG3gfgCfMOlNaKkrcQ8ECMO4o59KgA3KU1AAw2qZrLIYygysDVP1+Iq4BRtpwSeaiZFf6p6Z9K3/arcbGV1gpVTNrxqyQQxImyIkE63giNBy4IQggFkAACJSt6idAHbISMcGnaiEiiEbi2+DgGc2607aH19e8XvPEQPXAUE9Pj4Yn1CoVbm9v51deeYX9/rqZgQCalFCTAO9mlgYhWqJtBKp81dlXiw8CecM2rDVyRpGl4IeC/wggGo4DgucAPAvCJg37j3v37u0GMLx582Yb3vnkMQmYq2vBYjRybytnW6lsRVuiP2SlztaOU7RGHQKaMLLcb+0e5szRfQRP3OeDaF5u2odSU1FJXNFodIEi3/a8JsUViOwUV25Npda5Ynrem4m2tF0BJXcJsF4LfSKdXu+a4t9yoqWlbbEFaSSFRgL+XrLTGhsty5qZfWjKDigZ3SWZSsSHiLJ/QNCiobXeKsBTTPQkRG+iDG3s2NjRW8Bfz6PExJpix8KHRq3RSIwTQGgkTccry6oVHDyH8j2fDn199t8EJoJAoB1nB4BntMhGDfmz0ngm2W1tBtZ5u0YebyEUip9oMXXBYHAw4+C4rq71W4pshiOh2C1KqeuKOTdHROCzfHh96LX5GzZs2DHe67atXLAaxBcUxYlKR2Qj2RRfuLZ3yLQrpaKyIvcZzIHfrAvMXOOIEwLgSnHv8PB9lvYHkl3r/920L+VGPB6vdzL0cSK5hAgLRGABsLI9dbM4jjOm8JrKjeFQUTey1uKRCM7ZILbFDzsWbttsi9yWTnc8BC8CWxZEg9FF2sI/KeaLBZgHwM+KDl6TGXC0M+axuZ5Ph74+ey4JbD1ynhLNAzCPid5DIposGo6E9A6l4nfJ6/KjxFOJXXn8eh4Vi9QRsWWyFWZX166iR+7D4baLFdF1xUjFORSibNCmyqqJAXh43NcJnpeKCseWDgLmDuN1PwBP3JcjNtlzFXxGfRARkND1AH5k1JFxSKfTQwA8YT8JVqyIzanx6+OJ1ElE8hEF3xKyNLTWE0ZOSzxjwRIRi4hOrLKsB2PhtnsF+r6Mo9cMDeGpTZu8dqZuIRQK1SmtlhDTaUK00rKs40UEWmsjW6hjnadExAACzLSYiG+lWtwaDcf/INq5izU/ldiQeK70nlYmDQ0N/re//e3zkMFcrWieIhwrDs0f6URTN9JH3QKhBhCLBDW5rC8QBtEACb3hYV8DNgG2EF2dSq1P5+65ffwbEwlLi4gMAJuL2gYzFIqd7VN8r1PEVJxDyQZwdDsmEPea5P962j4/BJgTyFRbwKumXSkZFSXuSZMrfh9mPjYajl+X7Oz4mmlfPHIn2hJdBqKroeg9EDWPiP2AIGNnABxMk3ELo77Ytg0isgj8cZ/FH/XNkN5oOP6rV/dmbtq8Ob3bsJvTlmAweHyVNeN6JomJhQUABQjZXR43M5reSESnkLJOEZbd0UhsIw3h+sQTiWlVnFZIok3RJfDxRRCcTYI5UDRTEWoJBKjxouGUcxItveUvWRgAM8MZyuR1TWDy/z0MBe0JBIE8VUwb0dboSSB6sJTpvSICENomfBFhc4ncqTwIAfZp1zU6KSauEMOFgiwyNo76ULTWAOGm1ta2h0uQF+hRAJYvXz47EDhiiaXoBkXqTA2BHMizzN7J3CTox+JQ/yibLrSYiD591JFVnw6Hwt/I2NZ3N27s6IOXtlN0li9fPnvGjBlLSfNXLMt3Uja9hsq9yKmOwKdxDZ8WaY0+rEnd2N+/6/nNm4sbRS1/2q3W1qE6RuA0Jn2T5bMaRnf/ABwQ31JixZzcmMxrF4ahl4ipLtoEiNCmYi3f0tK2GIz/jyirjUp1zRcREGhBezusdevGnjFTnbGfG7L4QAcYj8kzHd+xinqSEVGuKAAbKX4M+FjuQYW9x5VGc3P7vFgodkttzaxOv6W6mPhMLRoocp5lqRgVEZbyf6HKh6ejofjdkWDkWNN+VSrvete76qPh+K21NUd0KPJ1EKuTHO3AZH5yoRj9PmitoSzrw4rkf46cVffLUCg2ccRxGhNtjcaiYVnjY///WBbuJ6YG27aNnw+O4+TdzU1AjYX0JReICCROTzHWDoXalvqVdBKh5PUElC1u97/+emzReK+Zu/aVAYLsKv+7UukRkWGxptc7V1HC07Lc035SRECsYqFQ7E7TvniMCUdaIv/qt/R2MP8rIMe/uXC1EhgVZCO/Vx0xfYyrfP8v1BL9PCrs+2+SUH0oEG6N/tusI458kYiuI+Klo4WrgPt3fXJl5HxiIn6fxbwuGor/sLGx0XA7A/fQ3Nw8LxqOrWHL6iDCOQLMGb22uOJcIMm74YNiZWxQJBHBARe8WUUwGLQskjUjxeWmPiPL53MmbDGqSdLKBadPuUGg/v2Dg64I/paKikrL2bdvX19NoNa0GwBGKuC1A59SV0RC8T+n0h3fM+2TBxAPxuc5PrmCwJ9RFs85JK/YsGfFh4hGCoEBn8/3zWgkfhE03Wql6efrvLaHeRENRheJjz7GoMvZUvWHK7auJA79HZWlLqubddTZkdbI9Xte23PfdE3VaWqK1/sVXU0sn2Vma7SFopvOh+x1gPLKWw8G4/OICWIbOscFeOGFwYKK++bm5jqfFXiMmBuL2fJyEgzatj1hFyDS8nvLRx+0ncoKQhUbAXZUDwaGgb2mXSkZlRa5s0XENa2ODogp4LbW1rYG0/5Md8KtsU9pP/5CRDcTY47bCxqLwcFIvgaBVhDjQTusfx2cH8ypE4cHEGlu+xxVqb8Q0c1gqh89n9wk5EqF4zgA0Rxm64dHzjqq8/jjj68z7VOpiYbiH63y4X9Y4fNEZBkWiuOSTW2RP+dzbJVylomYO8dtxx586aWegk1Sb2xs9PtV4H4majH5eTEzoPVNGzZsmLDI2SfDj/sqTbWVApKtb5/9smu0YSmoqNPEziYz7jHtx5shJr9P6Q0tLe31pn2ZhnCsNdYSjcR+7/f7vk9EM984zGfaYzHzaYHFNdtbWuLvDwaDFbWbV2iCwaAVbY2eFI3EnrSq+DYRCYz+bDqfTwceGiEgohOPOvJtf4tE4meiwu4xYxEPxudFI/E7LZ91LxEdSKtw8/kgWvIqSiWllsFg6iIJthZwOT5y1lFfV5Z6P2Du8xIRbTv6W8mu5A8O99r5a3Y/O5Bx/gSI1xQhF4Q20drp1Uiioi68lmUNC9Bn2o83k8215Nk+1o+GQqFpF9EyxTvfGa2NhOMPQvE6Ap/ihkI2NzISsZrtU3i02j/jXlTYdaFQNDc3zwv4qx8F828JvMKNKRemOZj6RTMZ9LNoOLY6GKzcXaFwON6m/egh0JXlcn0REbDN+XVxc/TyUnf1ORQBbS3UWrFQ/LtE9FmTE+0BAIQfpzrX/8tkX96fyZwB0e8V6AcY4po6QzcjLI+Z9qHUVNpdiaOR+CMEOtO0I2NBRHAc+0epdPJy075UMsFg0Krx17Rp4BEimjldcqCnioiAmaG1bMk4Q6d2d3dvNe2TGwgGg5be5/SPAAAgAElEQVTPF3ifYn607JtZlpDR750W+e/BfbLyqcqadMvhcOwcn/Kt1eNMEXYrItLvSOYd6XTusy+ikdiTBF5RDL8mg0D+I5nq+ORU14lE4h9j0D2m7w2OyC86Ozs+NJU1Xjy3/mz49CdEaCkRZoug1muXeRAWvad+dd+Rpv0oNZUWodMQPG/aifHQWsNSvsuikajXQadINDc3z6vyV68Wot97wj43skXgGkRo8HHVhkhr/GOmfTJNc3NsScBX/UuL1aMEKovIrFsYjeIr5vfMqKGuSEskZtqnQhEOxb/DoLW6PNuc7lRK5VfwLGSsUw4ACOhvU10j3Br7FAndA5hNndKCVZ2dHf841XUWru39xcJVfafP4H0nOCKnEtFnCPIruKj+0BTViqCBa0z7YYJKE/cQzU+b9mE8iAiOdgDhK6Kh6JWm/ak0gsHgoior0MPEH3ZV27ky4sD7RZjDiu4Jh9s+ZdYjc7QGoyf5FP5MzO/3zqf8ONhUgI4lpX4baYosNe3TVIlG4vdbij89+t/ldk4IsLO318q5O1YwGJwDgx32RATi6Cml3YbD4VOY6XYYTC0CAIhsSnWuvwgFHCh41IO7+xev7ksvXNX7vYWrtp/xmj38Nha5BtBbSGQYEG2yXsIE+xy9c9Hqvp+Y9sMEFSfuHQz9ybQPEzGSo8tE6s5Ia/xi0/5UAqFQKBANR/+tumrGCyBa4EXrp87o+6cI34+FYregAq8V4xEKhepiobav+6rUH5nZ751PhYGIashST4fDsQ+b9iUfGhsb/dHW2L0EutitnXAmA4F2vPDCupwj98w8lwgmZxkMk9I78z041ho7kclaS0R+g8WzENG/SXR2LC+2rRPWvjJQv3r7HYtW9R03tH/f37HoSwD8GCLPQKZDQa5oaNxk2gtTVNwNu6ura6sIXJ3bKSIAAazonlAo+kHT/pQ5rMj3RyL1FQDTpsd4SWH+11Ao/iAq8HrxZlpaWmYq+H4rhC8A3vlUSLKD/YgZ9GBra5sr66Im4sjZR60lxR8Fyi9a/0ZkJ/KIGPvZPxcgk920bAB5ifvW1tYGYeogUJ3RNCrBc6+93n9uqc0e9/PdvfWrX3rg7tXbL9+/Z3vQR847ROTLLOK6BiSFgiBbF760/Uem/TBFhd6s5cduvvge4pulmO8OBUNlv1VtgkhTZGk0HP8LM4e8tIniISLwKb4gGo7d1t7eXrGtMsPhcMSnqv7KipsOZCd551PBOKQFrd9v0S8jrW3vN+zSZOFoOH4rE59Zhvn1Y6BfyOcoAc8VEWOReyIa3rePchb3zc3N8yz2P0JENSYf1kX0My/0/m35pk2bCtanP1duBvRxj2F4/qod245Zvf2m+tXbj2YaDkM73wb0eojuq4g2myKD4jhn0TpM2+GMFSnuX3t9723lclMm0Fzl93W0trZ6Q65yIBaKnU0+lSSihnLeIi8HDrY3VJ/NZOz7TftTDCKR+MeYrN8T0VzjrfEqnGxqgoBY1kbLYOcyFm67jIiuq5RdHO3k106SGAuIyJhmEMjwk08u2JHLMe3txwR8VuD3RLQUMPiwLrJ52N5/am9vr+uKXOsf3Jle9NBL176W6TuV7KFmtnEGCR6AlGubTbGh9cpFa14u6CTjcqMixf2mTZt2Oo690bQfk2HkhjFbsf+xFStic0z7UwZwNBT9OJgfAeB1wykhIhoMdUEkEvtX074UEI62Rv/Zp3z3kFAA8KL1xeaQCH4NsVrbtsK907sjTZGlrPiuyojYj6BoW34HyjGFdSRnBoC1k37ybmho8NvDx/yaiRpNfn5ayy4Z0qdu2LAhpweTUnPCWgwvXLu7r/6n23+zcHXvRxat3n6EOPoMEv1fgPQCMuj+glzRAO5YtOal/zLtiWkqUtxnkTWmPZgMo1FRJmqYUYNHGhoaTBYsuZ5IuO3rxOpu4EBxsmmXpg2j7zWDb4m2xD99mJeXBdFw/C5S1ndsOwOTw3mmIyOCK+BUozMUcl9qYjAYnEd+9ctK28kZHs6zXbTwsQV2ZdIQCBB5Kpdj5s2ddzcRTjEZANIiW/ZnnNbkk8myzG0/Zk3frxau7juLMrQcot8L4BoW/bhAu24HApAh7chVi1Ztn/RAsEqmcsU94zcAymJb6WC7OI7Nfdv8P5r2x6VwuDX2TSZ8vqKiaGWIiIAs+m40Gj3JtC9TIRqOrWHmy0S8SbMmOBjBxxzF/nuWLVvmqkm21b6am5mygrZSzg0RQU9PR54RZKkvrDc5QAA0bZ7sy6Otse8SqYuNCnuth/UwfainJ+Xa2TuTZeHa3t2LVr+UWLR6+x31q/tOH6ahtwP2NQTZApFhMtxmkyDDLPryxWv6/sOYEy6jYsV9MpncrKFTpv2YLIdE8COxUPx+VPBnkyvn4lyORqLftCz1eaBybrTlyuj7L1rd39LSYu6GnyeNjY210XD8EWZ1nlev4Q6YqOmI2ll3mfZjlFgodjZb6opK6xgogt68DyYyF7kngu04T07mtZFQ7Auk+NMmv9si0kdaoume9RWZ933cg7v7F63accfCVduPs/e/fhwJLmXgxySyubQFuaIB/Tg5aK5f/dIDpbPrfipaQGrNVzOXz6944ELEfHEsHFtt1hu3cC73hl9aS1Cf8yL27oIJ9ZYK/My0H7kye+ZRjxDR2V69hnsYGXR1cSTSdotpX4LB4Bwh+qHWlTXzh4jAhJxSWw6BleLZBXUoB4gImviwQjncEvuwUurro8eYQEQGofX5ye5kWdT9TZVjf75nW/3q7ff9cPX2y4f2bH+3s1+fwOR8G5DdRTUsskdr+sdFq/pOr1+zfVNRbZUhFX9ni4Xb1oBwnmk/ckFEwMzQWn8r2dnxRRRwil25EQm13aoUXedFWN2HiECxgu3YX0ulE9eb9udwBIPBGr+/+n6L1Tne+eQ+RgT+gGNnTu7c0GlMGEXD8ZuJ6Eum7BcLZobjOF9NdnbcmOuxzc0nN9YE8D+2bRv53iilsK7jjxMajoVi7yOlHhutkTDhpwADWjKXdnZ2Plxy4y5k2wXzmpjVWSKIaGAxA/VCNIW6Qr2HhDaD5JGFq/q+VThPK4/yCWvnSUbLLVImufejHGw9SJ8Pt0an7YS1aDj2XWZUTAu6SoOI4GgHRPTP4XB4hWl/DoffX/N9RewJe5dCRAChlizrQVM+tDe21xKyA8wqD4IjmZ58jmTOnGjyOmw79p6Jft7y7ugyIVprdN6JYMB2nA95wv4gix7asbF+1fYb6+3tpzrIhDU774aTuRSifwytnzlcCg8BgEgvRK+C6PN9jvPuoT3bT/aE/eGp2IE0o3R1dWyKhON/IiLX91N+MyICv9//pWhL/JVkd8f3TPtTSiKRyGUE+rQn7N3NyGdTw/B9B0C7YXfGJRZpu1Wx+pjtmIk8ekyOkd2gJbFI7PuJVOKqUtvfP9P+ro+tQCU+ABIBlmXllb6gGMtNpkWS4LnxfhaNRheQVl0gmGxla2uyr+/qSv23CeNuh9ZCAzt3IjtheDOAn4z+7IUPzZmHGjqWbTVTK6ojTQPEMuQ4su1vO3ZsOXkaD6KaCpV19RqHFStWzJlRXfsCEbuqG8NkGLmgahG5KpVOTItK8FBz/KPKwj0mB6Z4TB4RgVIKtrZvSqUSXzbtz5uJhOKfZabbvQfF8mDkmmcL0cmp1PpEqezGmmNLYPFfhCTberHCICJ0JNfl9YtFQ7Hfs1KnmBL4ouUnyXTHpW/+/9FgdBH8/EciOtbU91tEhoXwT6lUh1fQ6eEapoV4euqpp3aJpkvLUSuOtOhjy7LujATjZ5r2p9iEQqGI5aN7USHn5sg0Tj36B4ANwD7k/5l2ccoQERzHAQld29TU5KruOa2trcuU4tuByuqyNDrltZLOo1FGrnkWieScGz4VhOkSECpS2AOA1npnvscS0TJT59hIutZfxvyhn35GI118DAl7DY2bPGHv4TYqPi1nlFRXx8PRSOx3BD7NtC+5IiJZ8VSFX4ZCbeen0+t/atqnYtDc3D5Pkb4fKF8hJiKDAtpCIltB2Ka13k3Er4CdPaRJQ2gw+0qaKUAdEY4SkXmALCahRWA6FmX4vRz5vGZW+aqvBXCNYXcAAK2tsRMtps5RIVyO55SI2NnpkLQDwA4AO0RkDxENi6bXWekhEWIRqQFwRPbfMpPAcwEsAOFYADPL7XcXEVjKOi3U3HZeekPxr3eNjY21wji7vN6l3BBga94HE80x2jPekWcP/e/ly5fPnlE962dKcZPjOKaEPQDclOzq+FrJjXt4HIayExFTQGds/oRPyd/K7UZ3cMgVQRHWxMPx3o7OjrLp4T9Z/JbzKJG5KYhTYAhaHt7v4B6lMqldu3bpLVu2jEbpJ0UwGLT27t3LtbW1M2cEjrhAgEuZ6cQi+lwk6LPLli27YdOmTYMmvVi2bFmNj/geEPxlKOyHRPA72M7PbLYfp+3U3z+zX2/evHmy5xS3t7fz9u3bedasWVZV1Yxl0HIuCBcT0dxiO18oHO1AWXIvGk7/BbY8NlxMWzNnzqm3FDdW2jTaQ2GRrfkc19LSshgw2VpSQxHeMOF1RvXM25lxiklhLyI3pdKJr5bcuIfHJJhO4h7d3eu3xiORjwis+037kiuHdNCBgJKhUKw9nU6sN+1XgeBoOP4dZm4qh0I2ERkE0XMQJy0k96ZSqfRU1+zp6RkVbbsAfA/A9xob2+fNrnWuYkXvEWAZEbm6ZmS0hesRNbPuAvARk77U1s66nZmXuf18Gon+9ROwRUM2Ktt5sGND51S/13rdunWjKnUYQHrkz7XhcLiJxLqUCTEQGgFy5T3gkOtdIDLn9etSW1DUWg4FuaqSUpvGQoi25nOcj3yLC+tJzgzYZPeP/J2jzfGbLMsyXBwvP06l3Vdf5OExinvvekUkEordSkTXufmmPx4HBL5IP2k5OdGVeMK0T1MlGmo7ByRrAbCbP5OR4SQ/gIMfogp9yWSyJC1WQ6FQgGw6npR1Eys6uxQ2p4KIaEdoeTptZjpjJBT7kmJ1s8DdYk1EBgHcQbbcK/3Sl/xLac4nAFi+vH32jBlyIgG3EeDqNqYi8nzG2f/u7u7u/sO/Oj+iofh+4qn033Y/jqOv6uxK/CDX4yKt8Y+xonuK4dNkEEhfxt7f2t3d3XvoDAJjO3JafyORTnyx9IY9PCaPe5VUEWlHu5UJ6a7yTHs4iIjA1sPHdXV1bTHtS74sW7as5ogZs15xa1Q6G82jHRry8N69fP3mzeuMzkwIhUItCtY9YF5CLt55E0ffkexKlDz3PhKJLCVRSbg0z1xENAg7SMtDicy+L+Lgjo0xYq2xK4TpJiJaYNqXsWBmDNtD56fT6aLk3re0RJsCft8GUykeo4gIQOiHRq+wrKF98gtr5qvPr1u32eg1JxKKfYmZbzZlXyDPZez9zUr52xSpR2HwoV2L/CrVOe8sYG3l5m95VAQV0ZEkV9ZhnW3r/SeLwEhksRCMRi187O8IhUJLTfuTD+3tsI6YMeu3zFzjxi1xrXUvQFcJ2cs7Ozs+Y1rYA0A6ne4eyuxbDi2XiKDXtD/jIUxnt7S0zCy5Ya3uJSKXCnv0AvqTxHJCIp241g3CHgASXYn/5OHBoNb4BsR9PaW11lDku7NY61tMp7iiLkPov1jj1GS644RUKvHl5JPJTaaFPQAQ4RjDLvQr+D/MoF+aEvZEBHFw3569//uPnrD3KAfcdwcsIU1NTcdW+Wq6iDDHtC9TQQR7Xt27a+HmzeZvBLkQaY1/jBh3w0XpOKM3eS36oZ2v7Lhky5YtRS3kmwrz58+vecc7GroY5LqHO2bG4JB96saNiZINdYlEIt9R5Ptnt+XZi8gwgB8nOzs+adqXwxGJxC8mwT1E7snFH63lcCRzfiqVKnj0PhqO/ZKIjbUZFhFo6Es6O5P3mfJhPNrRbjlh/QgMDoE8JBXVYFGv/GFoePC9PS55IPfwOBzTMnI/ysaNG593RP+jiJSVKD6U7AUPs4+cedT/RJuiS0z7M1laWlrqSeE2InKNsB9hvTh0aqozsdLNwh4AXnrppcFUquNdWuubkENnnlKgtYbfh1tKZS/cFI4wrE+5SdiLiNYi/+1I5uRyEPYAkEp1PEBaoiJvbD1oklFhB1FXo8D3rIaGBj+BFhsbziQyrB35kBuFPQDsD+23BDTPpA+j32cT3+uRc+9PA4P8j56w9ygnprW4B4B0OrFebDrVjWkhk+FARINpEXz868bGxrIoCvOpwGMEqnPN+56Nnn0y2dnRnuxaV1YjxFPpxJfJlg+Y9uPNWMpqaWlpW1wKW+yzbgVguUXYA4CIXJ/q7HhvOp0uq7a1ia5Ed8bZf6oIdpj2ZZRsK2AcH4lEFhdy3bk1c2cLxEgaFzPD1sMrO7sTvyi58UmitfYDUtY721NBi7NxaHjw1KefXrfHtC8eHrkw7cU9AKQ2rE+L4JqRCaJlx6jAZ+aGullHbQgG2119MY6E4pcRYakr8lwBiGCLJucDqVTiP0z7ki8d3R2/E+2cLiKuuQlprWExih6xjoTil1mW1eaWB0UR2WLr4dZUOvENAGV5Tenu7u7dn5Fmt9R1EBGYuU6EYoVc16l2ZoKo9LUhABzt/KKrq+vnJmxPFsdx/ADKZjZCIRGRZ4b20xlexN6jHPHE/QipdMcdEP1FN4jNfCAiaK0BomXVfv3LYDDoyu4zLS0tMxm4HnDHFFoR/XPap8OpVOo3pn2ZKsl08nEh53S4ROQCAEjeEwwGi5a/3draupiZvus4TrFMTBoiAkT+NGz7W9PpdLdpf6bKxo0dvXCcD4hgl2lfgAO515cXck1LrNkQzC7kmpNDhuDo20pvNzcCgUCNUsqV95JiIpBnaUDiPT0drtm98vDIBU/cH0IynfyW1vonbokA5sqoWGalIgGr5m648PO1rKqPs6WMT6EVEQj075Kd889NPJVwhXgpBKlUKm0LnyEirog2EbBIKVVfrPUt8t8AIACYfVjM9vbXP0p0dpy8YcPvdxtzpMAku5ObIGKsDeKbscgXK2TqoZDMZeaSXye1yI5kVzJRars5Y6Ns6rgKhqAXpN+b+HPCNbugHh654jrxZ5qXX3npExD5nWk/poLjOGCLLwiHYqtDoVDAtD+jNDXFjiXQ7aZHvIvAFpIbkqnEeyuxrVk6ve5XIvIVN+yMENEcoKooAiEUCjWA8NFirJ0L2V0zfDWV6ihoVNktJNMd3xNH7jB9PmX7wAtmzaq7rGCLEpd8gBcRgUAPldpuXhCvKNNYV16ISN+wo9+bTCa3mfbFw2MqeOL+TWzZsmU4mU68Vws2m/YlX0ZTdCylzlPku8G0P6NU+eg283ITAPCjVCrxf0w7UUxS6cSXxdHGCzmJCH6Wk4uxthLf15nZeAG5reXazq6Om0z7UUxe27f3Bq3F6LC80esaazq/UGsy0btKvVPLxADzL0tqNF+E3mVyaFQpEUg/WIe7uxNle+/38BjFE/fjsH/49XYRXbZDrg4KfOvfouH4LTD8Wbe0xBoBnGIy5UlEtNb4RrJzfVm0JZwq+zKDp0PkeZM+jEz4LXgP8UhLW0z51DnGd4EcubGzc/23jTpRAjZt2jRIWhtPzxERgLE0Go3WFmQ9QslnRAiAZHJdutR284JlRbmmqeaCiPTD0Wd5EXuPSsET9+PQ09Oz639frWoXyKBpX6aCox0AuC4ajl5p0g8/01XmJ4fST1Lp9dcbdKCk9PT09Iujv27aD7asxkIvCSVfNynsiQii5RvJro6vGnOixCS6Eg+IwA397wO2TQVJ9SIp/QA427HLpsZHUPqHn1IjIpocCSe7kn8y7YuHR6HwxP0EPPvs73dn7P0niMhO077kwyHDP5jI+n4sFHufCT+am5vrSPGnTNgeRUS6h4Zf/wTKtDVhviS7k/8pgo2m7I/0J0ckEilYC8N4KL6CgBUmW6lq0T9Ppju+aMS4QSRjn2tysPnI5x1Q0A1TXSsYDM60fBZKHZkmUFmkfTScfrrfpyyu5Mi9iAxC9FkJLxXHo8LwxP1h6O7u3io2nVWuPfCB0dQIAZgfCYVi7ym1fb8K3HXQj9KjBc9gt/6H6dqveHDIOcuUbSKCFg1x1KmFWlMTPkPENcZG0Tv6+Zd3vrTSiHHDpDamntGif2XSByJiEB8/1XV8vuoWrUv7gEgggKQshOTb9uxpFLhjFkkxICI4tv5IMp00ej57eBQDT9xPgtSG9WmSzHvLVeAfcnEOWKDvx1bESjbkKhwOLyKm92mtjdwkRGQIjv3J5F+SAyU37hKefDLZp7U8YMq+iIAJbYVYKxgMzlRKfcxUkZ+IDA/ZFN2yZcuwEQdcgDhyr/FrIfE7p7qExbys5OcRAXDo/5bWaH5QhpZUdNRe61R6Q9LVQ8Q8PPLFE/eTJJFO/zdBLhGRsr6pk+IlUk0/K51FPltEak0IeyICNL6R6k65v590kRHCnYAMGXOACtMvO2BVf1dEjOwCCcQWkk9M98E2w86+3xBgNFWRIFOO3EPrd5s4jxzSz5XcaB6Qj06oVG0vImClIqFQ/POmffHwKAaeuM+BRGfiAQ18q5y3KUci6G3RcPzOUthj8EWm3i9H6+5khbconCydnR0pAUyK0kBLS8vMqSwwUrtxpqldIGjZmEolflJ6w+6ip6dnUAT3Gb4OLprqAkJYWmpxr7XWWktZFNQSeEmltsEkIjiOA0W4ORQKTf1B0cPDZXjiPkc6OztucBznJgBlmb9NRKNRz48XO/++LdS21FKqpZg2xkNE+on1pSZsuxVH668bGMY5iiXinzelBSz/B0XEUMclGRjK7DvDgGFXIuzcRgYLa5m5AKmFtGDqa+Rss1+E+ktvN3eEaMoPUG6GiEBENYp8d8HTQh4VhndC50EqnfiyFqwy7Ue+jFzU/BbT2mLa0dA3a0MpFBD8JplMlkXhWqlIp5P/4TiOKfOWUjR7KgsQ+ENEZOCaRcg4zmd6enrKIuJaClKp1E7HNjckjZnR3Nyc98NiJBKZC4Jl4No04LfF9fU/wWCwBiIzKznnfhRmbgu1tN1i2g8Pj0Liifs8SXWuv0Q7+C/TfuRLto0gz46E448UY/1gMDgTzOcYSaEQDOx6VV9eWqPlgQhMjb23AMk7Laexsb2WgIIPw5oMInqTZdHDJmy7Gc36bpOpOUoF8o+8D2MuCflL7T9B+jEI10fuLcuqBWB4Lklp0FrD56PrIpG200z74uFRKDxxPwW276DzRUtZCvwDo9yJPhgOxz5Y6PV9VTXnFXrNycDM0CLX/GUad8eZCCH5maEbtqXAeYv7I2fqK5VSJe+5TUQQwq3JpHc+vRkRu1trbaRIWwQgsvMW92zxPIH4C+nTJBkoh85dRDQTQEGmAJcDIgLScmcwGJxSXZCHh1vwxP0UeOGFdUMv73rpXNFSFt0P3syIyLMYdGMwGLQKuraWUw+xUTK0drYNDO4t25SpYsO2bNZal3zqMhExlOQtFoRwtYldIO04valUh6ndDldjWdYOgAwVaQsAX13+R/NcAAW95k3Orqn3KzfIplpME3E/ek1RSh1bVVX9TcPueHgUBE/cT5EtW7YMO8iEtUi3aV/yQUSglGqpqqr+QqHWDAaDM5koVKj1ckEE923atKnk4rVcEJ/sgqE2huIgr6hYKBRaykT1JqL2EPlISY2WEYlEYhcg20zZJ62nEHmXBSbqN0jwbKlt5gP5fXXMbGJnwxiOdmCRdUU4HP1n0754eEwVT9wXgHQ6vVuG7HNFUHYFd6PpOSR0S/sxy6dU8DhKNVXPYeaSd1oQEQyRc0+p7ZYTPl9qNwG7TdgmQiCf45T2vS97fGmj9o7WTwzZQ2X50F4qNGDs/VFEeZ1PAACSYwroyuRMEiEj5THAijP6WNM+lBoigqMdKFE3xppi0+7396gsPHFfIDqf7NyWcYb+QQS9pn3JlWxxLWF4wcwbCrKeTy4pxDq5QEQQyH/3pFLPl9p2ObFuHWwtMPIeieSV48yi0F5wZyYBQf+qp6fH2wWaABa9wVTRpZ7KjFyhkos3AsGSfWURuYeFE0y7YAIiAimaIxZ+aNoXD4+p4In7AtLd3b1JiM4QEdd3QziUAzmHhAuXLy9E9J4vLHUKBTNDD9vXlNRomUKEHjOCjHPOcW5paalloLEY3hwOcmiNCbvlBDn0lClxz4z8i3lJSt/DnQDy+8tC3DvAkunQBnMsRqbXnhINtX/XtC8eHvniifsCk0qte0o78k8iYqSLxFRgVguqq2un1G4wOD9Yo5RqKPWNwXHs59I96WdKarRMEaInTNglkapcj9HaPwfEJY+yCvQzie6ENyfhMCQ2JJ4zJQI1plIYXvoBTVprJBKJPaW2mw8MMvJA7Ra01iCWK6Ot0ZNM++LhkQ+euC8Cnd2Jh4XoLEh5TbHVWkMRf2cqa6iF/vebGVpVni1JTZDJ7NtoItoqJDknUvh8/D7m0vrKrEDi3FhSo2WMdpySF2gTCJD8CsODwaCllFXylodao2y6qjHxYtM+mGS0kxwx3w0DXZU8PKaKJ+6LRCq1/ncAviiSu6AxhYiAmWeHw7Gz813DR6p9NIe/hNiaqKOUBsuZDRs27DbyAMbYl/Mhoj9Qal9FNBKdnd7D4mQRlL5jDgHDGn35HGpZVmO2EVLpzquReQllsbMYi8Vms1JmJouPoB3z7aWz90N1bCQS85o0eJQdnrgvIonO9d8G8EWgPKb8EVH2gia4Ku9FmFYU0KVJIYIBrTMbS223nDERuVeack+jYD6t9OJeEgDK5qHcNMK0tfTnE6GqivIT9+RfYSAAAdbOkyU1mCeSESPvz0EHAJ89GIVIXp9voRjtnsPgi6Oh+JUmffHwyBVP3BeZZGfHt6Cdfzftx2SR7OjHhtbW1rm5HhsMBmeCkPNxU0WgB9LptNEbQTlhagqjAyenOpSWlpbFitkqudaO5FoAACAASURBVLh3nERJDZY5RAYi95C889dF03Ijk44hZVHDIYqXZoeEGbIP3buup2dXRpvf+T7kAecrK1bE5pj0xcMjFzxxXwL2ZfZdKyK/MBYJyYERHxdZsJbkeqxlWXUACtIrf7KM+Pu7Utosd3y+GQuMGBaVk7ivoqqQkRQvoa5SGix7HAyU2qRt23nXM5GFku8uAoADZ5MJu7kiQu822imHeCsAdHV1PACRx805chBWPKemmn8GTzN5lAneiVoCenp67GRnx4e0LSnTvkwGZmZSdHqux1lizYSUXtxrUY+W0ma545AueTcjALYmySnSajNKLjJEZJgsvbWkRsudPGoppgpB8h7EJiLLSn1eae3Y+/f7yqJTjoIsNdsGU7aO/s1Kq7NExPisCREBE9oiodjtpn3x8JgMnrgvIcN63xla3L81KyKA0HtyPpAwt9Qjy7MTdrf/oZQ2yx2/0PEGzNpKchP3irCsWM5MwBC/lo0cekwWPUSlrisSylsoM9Gckj80AjtFXiuL7mkCWWzUvj4o7tdhnU2Qi0yn5wAHhj1eFg7HI6Z98fA4HJ64LyEbNmzYbTv736vLYMgVEbfkeoxDVHIxZts2uru3uP79dBWEE0oemRPYEOQSbWURzDUQQRxK/Lk8epG7BuGSi1ZN2JXPca2t7YsBEwXltNOyrOESG82Z2LveNRugkte5vAHGC4f+Z6Iz8Qu4IPWSiEBENQyshaedPFyOd4KWmO7u7l4tHARKn6c6WbIT+hjNzZGcclNZuOSFagDKYuKjy8i5nmKqCETDwaRFczAYrAWhtuQiTMRAcWh5I0w1UuICTEZ+bTCZdekn0wKA1jsBuF7cIzBrLgDLYH2YDYfeMr9gaBiXAmJ852OkXfSCSDj+M9O+eHhMhCfuDZBOr9si2rnEtB/jMdoS089WW04Hsj6xSC6Nj5RH72i3sHz58tkElDwtgUDDr+57dcdkX+/z+WohVFNMn95M9rwn72ExR1hjVqlt6jzbJDL04gK7MikItLOnp8e4OD0cmvRcIippauWhiMgwyf/f3v2Hx3XV977/fNfekmVbGMcxjhPc4KZuGnSD40SxLM1IVk+hOS3lV2m59JxCW9pyKKU9KbSUS3tpn5T2tsAFDgdKTy89TwsFTkv78BtOofyILY00kq0kTqgKOSbHgTRNQzCOsWVbM3t97x+SHOHYljSW9p6R36/n8cODPXvWirRn5jtrfdf3G58U3E9MDD0SpZ8qYk7zzaSBRpn0onLf3p8rej7AhRDcF6RSrXy0HuNbm7WCjrtLQc9cyjUmu3Gl5nPe8cxkDa7gXa7Wr1+/yaXNed937n50cnJy0SuX7u3rZJ5rcC9JSvLvttrqomJn3mOa2b82dGFUISv3bq3xPmUh3eLuhQX3kuqe+nlfg21t4bOSfzrvCZ1rNj1HZv6n3d3d+b9HAYtAcF+ganX4DTGLHyy2MsH5zRyq1aKD9e7u7s1taVvuXQ3r8m/nOmCLizFsM7NNeY45251zSbXjk6TeIVfHSs3pfEymGAP30xKF3HtbuDxmi94F+h4WnrHMk1nswF8vZtwlMm01swLjAps+dqztvMH9vn376j4df1NefErrzOHa0NnRtvaLXV1dRX4ZAs6L4L5gtXjmNZI19kG10ixet9iHrlmzrid6zL/ro6zhkniXIzPfm/fvyMyk6KNLuSbGpN2Uc3qASamFwgOHVhOla/P9Tm91U9rI6z4oqJhGRD7dImc5vKAvP2fHn56c3HfB12DlYOX+TPHVIRQbupxNzwmh94qnXPmmQicDnAfBfcHGx8eP12N8oXvxh4Xmc3eZrH3Hjh2LCrDM1VfEDoRZ5B5egmD2wiK6c0ar37mUa5IY22VKV2hKF+QqNCWhRdm1eXY0dVc9y+KSq+UMPmOwXZ5/B21JyqQjRYy7dMWWwZTi4YUeMTo6/MF6ljVFeo4kKfjryj3lIsr2AhdEYNQExsaGxz36q4uex3wz7dIVNm3atLjUCLOeYtKL8q2r38q6u7s3JCG9Ne9xs3p2olqtLvih/T0s/4odM+0dMnJolyiYbctzPDOvK60veeX+1FWn2iVtXYEpLeyhFgnu3bYXNfRsLvs9i3msK7ze5U2xy2YW1nkInyM9B82E4L5JHPvu0Q+4q+k62Lr7olZPTZ7rYdo57gUcumxRHe0d/ynnioWSpCi/c8kXpWnuq/aSS55ekf+4reslL1EIIcn1rI27pmu12pJX7mffy3JPy4kxTlcfqp7Oe9yGmBdTKlSzO3yZ7lvMY0dH931Vmd7SDAUpZspj2tYrNl75/qLnAswhuG8Sk5OT05lP/1IRwdeFmCnEGBdcjXjWs/o3uqsj966PLpmp4BzRFuLhlTHnRo8zFY3i/1zqdYu575bbzO3rO/Iet5U9+GD/DZLnfdamPjExseTgPkmSjhDChpWY0IWZgrSo1ehmEEJSzM6GZneLQ1j0z6oyNvSHWRY/u5JzWoy50tFy/Z/l3r0vLno+gERw31Sq1epXXdl7mmE1QpLcTR3SgkHWhjW+Rab2/OftMtk1OQ/akkq7S7tk2pb3F7AYo2I9ji/1uhBjAe3mXVIxpRJbVeLZdbl/qdf5SyUuJMT26/I/TC657N5cB23Qnj17tocQcq94Nt/09MnJpTw+8+nb3WPhHcpnU4qCzP/HYs+pASuJ4L7JWGJ3xFj8m5U088F0WusWrE2eybaarIA0CskLSgdqNR7seWa2roAvjt+IIS65UkhmVkg3T3NdK94XFy0Jbbl2OzYzmS9+dfd7BN+V987ozGq0T+Q7amNSW3PLTInHYhaX6vV6nJiYmFrKNWNjY4fd9fZmWBCb7V7bvuVp13y5t7c31zK+wLn4EGsyw8PDRyX7QtHzkCR3j9LUgm+2SRq2FtX4JE3acj3M16pCSArpiOzSA2NjY0teaU085/whzfZ2MEvL3WXuqUVy8x/Mc6XXzOSLzMs+Vwh6lucc3c92PW6JlXuZ31RkWqi77m/kupHq8B9Erxee+vRE91ovBaW/WvR8cHkjuG8+Uco+V/QkJMmkeOrUqQUPgkXPCml8MhOMSXv2lPvzHruV9O7e++I0TXYUUQIzmH2skWvrsuki5mumDqVadH+Hy53J8/9ZBX2lkcuia1cRKSdHj8aWCO7dbVfeX37mM7MlpeTMF6bD89298B3vs91rg72lt3fvDUXPB5cvgvsmdKbWJCv3UpycnFwwPSKE5PvzmM+55lZKUiUvLWL8VpGk/r4sywoZ+7snH/9AI9eFkE27exGpOR1ugVSvxQkebFPeK/d1P91QsGym3GuR17P66a99rdIUJRsXZH5LUfn2s43uvtro9UMHhx6K0tuWc06Nmu0RkyamL+/YsSPnA9zAjFUX3Hd3d28tlUpv2727P9dc0OV08ODwAzHGQnKO53NpUSshXmDjE3eXEn9BUeM3u1Jv/6+YzQRgeealmpmyGL9w6NChY41cn2XJtKmYvPtg3lfEuK2mp6enU67OPO8rd9f4+PhDjVybJmnuFb0sqkU600omFZqOlkV97VKuHx0d+kN3P7JM02nYXPUcM2296mlXvV2rMM5C81s1N13Pswa3lXsH/qyjff19ibX9VprYLxU9p0thFhreolye8U0h6uBiHhtUXBrD7CrJpr7uQbZAzzHYNdhpwV4rKfdDcmYmi/GOxq+vTbl8SYfrlovLXqBV9N64Utra2jol68xzzCzWG6qU07Orp6uIw6JurdG8qru7e+vZko4FcHcFyx641Oc5U/NnuxfzvjHfE/dZ+OU9e8rPK3QyuCytgg+wwbS3t/yLbZ3xf1uwX5F888ypdT23q2sw1w+e5RSVHSmyAoCZqRbt7sU81mWFNj5x905Ls96i5tCssqdkP5OEpJAdrBizb9S81nCucZIkU5Jy/5B2d6Vp2jnQN/DDeY/daqanpzvNPNf32OjW0KHL9rXt1xcSuFprrNyvTddeK+W/CDDP6cSSS86Zn9n11puXY0LLwczUFpJP9PT0kJ6DXLVscF8ulzv7+/p/tdwX72tP2/672Uwpxrk3p8SSG6/YUL+t0ElegkRpveg5WBLvWugxg4ODHUkSNuYxnwsxM4Vg5N3Ps+eWgZ2ehPcVUi5ekkufHx8fb/jD+syZMydkyj1X2cyUZZmi6S15j91qkqSjU1KOwb0pmBrKy3Z5MTt7rq8XMu4S1WSFHiJ3+fEzfmZZDsQ+/t1vv8fdGzp0vdzmij6kyZpPUR4TeWrJ4L5UGniuR3vQZe82sxuyLHvSdmL0KJn9eUFTvGSZ4qYixzcLmpo6PrLQ46anp28ocjt3joXkx/bs2bOl0Ek0iR07drSna/Q+kwr7vVj0v7yU6ycmJqbcF3fmY0W4bi3tHtxV2PgtwD1uMAu59bcwk8ztnxu8+pn5d9B2SfHhXAdtUFLg7qskmetElq1dli/zk5OTJ7LTtZ8soIDbk8x9NgazvSGElxU9H1w+ir/7F6m7uzvt6Sn1l0sDn0tD8plgYZNm5z9Xfmq+mdScdHNpT/8vFDDdS5a4itlGnlWr1x669957F0yL8CwU2vhEmvsQdaVhzZ8VNokmctXTrvpVM+sp6vcS3e8drg4v+MVwIabG6l4vBzNTSOIrixq/FSRKd+Q9pkcdbuzCQs4FTZtbQ2cE8hbMn1Hk+O468fjj/7JsX+ard1cP1+u1Ny3X812KJ7IJ2t7X39PfVfB0cJloieB+z57+no629UNtSfJFk902l2pwscBl5htzlJnd3t3dvS6vuS6H7u7udW5FVi4wBddnF/PIEKy78FX7szsH/qL+Pf23FDqZgvX39j/HLHmnVEz+bAhBXq8vy2F2i36g0C+Nppd1d3dvLmwCTc6S+Mw8x4sxKobaklfCn/GMZ3SY2YYC3qfqmWWP5D1oA4Kbby10BqZjhw8fXtbqWCdPffcd7o31RFhu7j7zJ7HP9PZ2Fborj8tDMwf3odxdvrbcN/Du9jQZs6BeSUvvgmrauSZZ31IB35o1a/qLPUwreRK/uKjHSjsLju3PMrPgIbxBzX1fr5ienr3bo9nHivyylcVsfPTA6KKqLC3kTExGinwdhJBsWNO+9g2FTaDJWf67iyfcfcmpG1dc8X2dLsu1ZOcMm85OZI/lPOiSPeMZg+1yKzSlMcblL2F57733Tilmr13u523E3L1nZtsTu/KNBU8Hl4GmDIJuvfXWbeXegT+3NcmhEMKvzX2ANPLmbGbBEv3Rcs9xJZmH5xc5foxxStOLW/GwYLtUZM/yJ/Gf7u0duLXoWeRt586d69oS/0SwfEsTzufyenRftkYyBw7su8djcfeWe1QSkt8q7yn/cGGTaGIu5ZtiYDoeY1xycJ+m2mBS7tVKTF7P2pt/5X7btnpqVlxwP9sZ+p9W4rkrY5UvxBh/t8hFgnOZ2W+VeymPiZXVVMH94OBgR6nU/9tr29d/04L9sqSNl7oyNFPaLtl7S0+pf3lmubLKP1TulOw5BU/jGzWrLaJRzGAqWWfRaTnzmVlIzT5R9Dzy9pT1G/eFEHYWev7B9ej06KmPL+dTRo+XnLt/KWaqXYR37tixY+m7hi2qu7s77b2p95qFHmeWcx571Iksy5acl50k1inLs6rPDDedmJiYKLzq2UKyLGt3U6Er98FW7nzNmdqp/5LF5qiec5aFT1x//SApf1gxTRHc79q1a/NA78Bv1GvxUGrpW1y+bFU+5krbdSTJf+/q6mr+D+grwgtCCMU2ZIo+vpgyhqVSrejayE/i7rJgW/v79v65muT+XkldXV2d5d7+z5jp1hhjYb+LEIJM/poJLW8w4+Z/HUJxv8bZ+2nXVU+7+rcLm0SOBroHtna0rf+yrWu/aHBf/qFyZ5q25VuNKej4xMTEklfuQ9BGmXIvQ2juDfd5yFNbra09yAorZ2xmOl3zFWvaODExMWUxe627F1MX+ByzCzDhaZvi+1siJkFLKjz46e8dfNH6tU/552h6p8muj77wYdmlmuliqh1XrL/yZ5btSVdAV1dXu0zvL3IlfLZm/PsX9dis2PJp52NmijHK5b9cKpV+rOj5rLSNT73yixbCc6Viv2RlMfvS8Ojwsq7aS1IybZ8u+vUgSSGEN/f39u8tbCI52Llz57rYrs9YUP+3vnX6oiupcVPY6THnXaJMRyUtOUCLMbvOlH+H5mihuVaLLyB2xO0Wil2gOXiwsqKVsSpjlS9E+V80w0LU2feUJDz3iiuaOyZB6yokuO/u7l7X1zNwW7m0dzSk4WNmtqLbU7OlMoOnfkdXV1ezdq0NV2y48kNmlhYZzMQYjw+NDn1pMY91he0rPJ2GzP2+zZOP9fb2FrsLskJuvXVgW7mv/0ASQk/RaVHuPuXKfnMlnvvbU98+FmNsqHHRcnF3xRilED63Z8+enUXOZaWUSqXrnrJuw1gI4RZ3nz58+OI7d8G10/M+axNCQwFgkqS5VvWRZgO4zA/lPW4jrJ4Uek9nWZZLJ+rR0eFXFf1eMp+7Kyi8f2DPwKp8T0Gxcg/u93SX+9e0rRsKiT5jUm+MmaSVX3V0dyUh2X7FU6/86xUdqEHlvvLLZPrpInOmgwVJtvjawOZNt3I/Z/bn2J5a25dLt5ZuLHo+y6lUKu1qT3XALBSainOW+6dHRkbuWYmnnpycPOGuZam+06h5P9+ONLR/ore3d1WVsuvv7u8xT4YshBtnXjdaOEUi6KY8v1SamaKyhhpYmfyGvL8Am5ksjSvymlh2Of8uz+VSbj8nt+x2d1/WkpuNmiuPGRN96Fn9/YV2ecfqk1dwH3p7B3eU9uz9UMe69qEQ7BZJuXU2lJ5I1zCzF5X2lH4hz7EX0ts70JOE9P3na8aVpyxmpy2JH1js4032fSs5n0tx9udotlVtyYdKpdJq6F4bynvKLzBP7g7BthbdPEySXKp3ZGdevZJjmOI/ruTzL2oOs70UzGx7sPSf+nf1r4bDcKHUXbpNa5IxM7tGOvvfuXCueLQb8w4IE2/w0KXr+mWeyqJUKiubarJcXLqxqNh+5nM5v1r0IyMjn3fps3mnaZ3P2fQcCzc+ZVr/ueDpYJVZ8eC+t7d3R6lv71+nId6dpPYf6/W6igpKztaaDcm7+vr6mqJcYrm3/LzE9OXoy3eIuGGmzw4PDy+2GkVQKLbCwmLM7NiEncHT0b6+gVLR82nU7ht2byqXBt6vED42L9Aselpy+Uu/eODA0ZUcI1P2EXcvvOrIE63kw1Zfa6M9PT0tu53e1dXVXu4b+FNrTz+neQUMzExumljwCYLnWinHzFQ/VW/s0KVZ7ql5tXp92bqtrjwvrJyxmSk1vzvPMY89/u2XxuiNdTpeAe6upC25o7Rn4MVFzwWrx0oG96G/1P97aWj/X8H0H93VOReQFB2UmNmGYOnQTTfdVOhWWF/fwG0hJJ8ys3Wz8ypsLu4uz/S3WuSBtcFnDLabq+lXL892rzVdl5h9plwut1z77/5n9V/XfsWaCZO9TLOv2aJfQ5Ik9384c2bqkys9TLVaPS3T3zfDf/O8ZjQ72tKOQ/23tF5H5L6+vmuveOqVXwsWfmUuqJv33yU7k1x05b6rq6tTbrlX+ageqi65O+3VVz9vXVuSFrBw4i2xai9JaZoW0b33rMxsxSrlnM/k5OS0PHtFs1TPkeaqcvlflsvlBUvQAouxYsF9qXfvm5PQdsfc/2+GD+Y5M9VzrKNz3YZD5d35B3vlHyp3lnsH3p6G8DmfnU/RXPrqyNjQRxb7+Pq2eupq/pX7c2w0T/6p1Nv/e93d3euKnsxCyjeXr+nv7X+7d9rXzWYOLzfL68jdp07X4u151fE+E079bh7jLNZsBS75GjtQ7ivf0dvbm3upxaXq39W/udTb/3tB6dfMbHv085/XOL726EVzoDdu3LhF8lyD+yzLHm3kuu3bv72riF2uoJBrwNqo3pt7dxS5C+juCqdj7qvolbHKsEwfznvcC5n5HYQNFu1Pi54LVocVC+6nTh9/Z+7VFBZpXlrDtWoLE319fbvyGru396ZrtCm5z4K9bu5ATdEBW5IkktkrlnJNlmXtkrdUcD/3JSqEcEdHW8fYzeWbm3aVpL+v/2XqCP9LIbzu7O5DkwghSG6vXOnydfMdHD74QBbjF/IabyHz3kOCWfJ7wdoOdXd359vUaQn6+gZ+xNfaP5nZHWbWIZ3/i2JWz+r3Dd937OLPlm6RlFtwbzLJGsvLDmq7Me/PITNTdH0t10EbFNa2XV9odTaPx6fT6dNFjF0Z2frz7l7I2Od6ojxm+qL+Uv8vFzwdrAIrFtzfc889j8Us+3TRgeuFnP1wlnUk1nZ3ubf8Kyu5+nbzzeVr+vv2vi6xDd800/b5Oa5Fq9Xr+0dG9leXck1bra09hCT3lu6XYu5nPbMFmty43p/yL/2l/t/u6enZXuzMZpTL5c6+nr7byqWBfSFJ/9rM1jXTfSLNloXM6h+oVPfnvuplbn/ZTFvp8++nYHb92jXrv17q7f+dW28d2Fbw1CTNpM+Uekq39fcNfKo9Tb9oZlsWuo9cfmSh53WPW80sv4IIJsnVUEMo81hIJZiorGlKLl5MiF5sqWD3R9vb2wuqXvN3sZZlP9FM7ylZlsksed+ePXtaLt0PzWVFD9TaGTXVVvq5vmdF1MKfJSEd7e0d6FnmYUKpt/931nckYzK93cxCM6zWz3H3aYv29qVeF5O4vVn+G5bqe1fCw1vako7Rcl/5nTt37iwsVae/1P8LysJYkrZ9xmR7Y1z+Zm7LwvWwTuj2Iob+7tSxj0t6rIixL2b+/RRC+KM17Zoo9w3csWPHjkK6T3Z3d6d9feX/fMVTN91tSfIpmT1vrpDBQlw6stBjgttW5VjtzMxUj2qoZrybduYd3Lu7UreHch20QS57ZqFN4mSPpg+lhR2WHx8f+ZJMi64Qlwd3VxrW/HkrpI6iea3oG/SUTR1eG9fdK7OmrSoxP3gyhV1pYmP9vQPvrav2zqmpqYfvvffeJTfY6O7uXtfe3r7ZPHmumf1RkiSb5oK1c8csnk1WxvYv+VBkpqQrWYnp5OR7fu+mrWbpb2zo3Pgb5b6BP7G6/6W3+8OVSmXJre4Xa3BwsOPUKW02y56TWvjjEMLWuPTmm7maXbV/4eh9owukbayMe++9d6q0p/T2kLa9pZnSlKRzXtOuLSGE37vqaVf/zlWbr3ptLdY+fvTo0UcPHz68YiuUvb29m2JMt7Yl9mKXvylN0vYYo5a682PybyziQbmXwA3RGkrLcdmOvN9to+tE3bVi7x3Ly69TgWUhXXp034P7iq07b/F3PYYXm1nhO9Fzr9MkCbeuaVv7W5L+oNgZoVWtaHA/MTEx1d+799MyNW1wP+fsh5+7LAm/msS2X37K+qfeVd4zMOye/WNd9er4+IW7NpZKpS2Wpb0yL5up5GY3hmAb3X12q62ZAvon1DL9ZCPXpQU3Plluc82gQgj/V0z9N+T6SrlvoCqPn/nO8e8MT05OLseHdejpKfe0p3ZbvebPbkv9xsTSTdFjU98jkuTudZO/YvTAaKENpUbGRt5a7ut/pVnYUeQ8LmZeT43UQvrudgtv3vq0qw9e9bSrPxdV//To6OiypGzc3Hfzteuz9c+JiZ5tbruSRDeEEML895yl31P2vxd6hLuuy/NWjTGqrlNLXgnf0dOzwaT2vHdKg+l4jNb0pTC7u7tTBdtU6E5y1CNaZIW2lVKpVB4u7yn/lKXpPzbLZ1qMUUmS3LFnz8D9Y2NDf1P0fNB6Vnxr9VRt+n90tLf9TjMHLuea627q7r2WWG+wtt9K1KZS78Aj5navzB+N5tPB1SkLW02+K4Rkg5vrbJaPtORVs/zFt46PDx9p5EpX1mX59iFbUd+Tj2/qkHSrzG61kP7aFU+9UuXS3s979E9ZEj9/+vTphx57rDOuX/+tuHbt2tjZ2SntkzQonThxQqdOnQonT54MV199tSRtSm3N3kzZ8xPZCyyETnfX3I0yt1rfvPfIDJP+fnh0+INFz0OSFMNvKtEnip7Gxcy/n1zaaGbPMek5qbW/ra9v75Ekix8949kn2tvDXelDaf1f2v4lPvWpT525l2adey+lp9POuM563PXjJn9eEpLtbq4gyeXfkx7U6P3k5gsG0WaWa2dql44lSbLk1d3NIWyRlOb+2nI/sb52vOlX7tva2jbI1VloCWbzbxY2+DyVscoX+vf0f0BJ+Lmi5zInxqi2RG/ZvXvwzgMH9j1S9HzQWlY8OpuYqH6lXBrYb7K9zVo950Lmf0BLUgi21cy2SvY9hxXc1fQrr+eK7kdq9TNvafgJLOSey1qEeb0ZbrM03GaWau2aRNueHh82v/Ixl47Vp+O0en1a05aubVvXvrZ93YYrNly5SaZr0jSdWTn0ZCatZXaHoJXuFXf/h8ro0H8oeh5zTtdPfqEjWXvQFJqiEd1C5v+uY4xKzLZbW/K6ddb2OndX/Zrs6FW6+lFJR+vTcWr2otixZn1Hx5p166546ubNkm9JnpKuC7MVtubfS+eO0Sh3ryuGBUtOmpRvVSD3R9YcX9NA6ka6RZZfVZ95Tuw7dKjpV+79lG/QOhWaihJMDxQ5/nyns9O/uyas/TEza4oqcLOfE9e2JfGdkprm/RetIZel13iyfnu6oePuLMvyGG5FXSigbaVgzczk9fjGA5fQWTSEZEsTFRlYcT4vqDIzmewama45+1uf+/3b9/7fc+/5VrpPJMk9fqWWTb+06HnMNzExMbWnXH59u+zLrfYFc/6CQT3W5z7AN0nadIErZu8py+NemjZfuJ68Bdua68/d/LEjJ48s+dClmbaYcqzqMytKR1VwqsliJOuTTrk6F37kyqm7Fj7jkZODBw8+1Nvb+9r2pOND88/IFcndlSThZ8p95bHKaOW/FD0ftI4VrZYzZ/TQ6D31LLtoYxTkw8wUs+yjo+PDDefxlW8uX2PWHM23vsf8uwAAG/1JREFU8tZqwfml8Yct00svdtakKGOVyp31LP5FK/8+mm/uNn0600WD+5tv/pFrQwg5v/bt0QcffHDJK/d5V/WZY9FbogxmjGHDXHf0wpz67pFCxz9HtVr9cJbVF93MMQ8zXzTC20q7S7n140HryyW4lySP/qfNVE/2cpXFeP90duaVl/Qk7en1zVTOE8svuh8NdSsPjw83bafNEyePvT56bIlAqhWYVH/88X+7aG7vmjXTt7jn+8XE3Rs7dGl6xvLPZoEhzRSD/jnvcRthMbu26Pfw6qFDDxc6gfM4Pe2vd3lTzcvMUmtL31f0PNA6cgvuT52Jn5Ws4TQQXDp3j9Hjmy4lHUeSPKk1baUSXDp3PxHcX7p/fP+RoudyMffdd9+xLMbfZ9Fgebji1ELlOs38ZuW8YxdieLCR60ye68HfOYkrt87NlyJY+swix2+2AHrOxETlGzHzJfd+WSlzB+WTkNza1zfw5qLng9aQW3B/992Vh83jB4peKbhcmZnc7I5qtXLJW47myf9xOabkXA7c/bS5/+RwdfgLRc9lMarVykfM9R7eVy6d+8K15E12S96FEdyyI41dZ9uXdSKLYGaqn6o37W7XfBb8hqLex2cCVt1VyOCLMDo2/A7JP94s7ytmpiyrKzH7v/v6+n+66Pmg+eUW3EvScHX4N2OMxTasuExFj18aGdm/LA0xXGLlfhVy92nF8OOtEtjPGa4O3R6jF1p/v9WZ2aIaRVm0/KtkxQYPXXoxK/fVQ9WmXJE+V5SuL2psk8mke4safzG+e/L4K2KMTZNtcLYyluyPbrrppo0FTwdNLtfgXpLc/FV5j3nZc39AFl++XE9nyrlaBlacu09lHl9eGdt3Z9FzaUR2evrl7t40H8StxsyUqXb3gg9MdG3eFY099YbKJZol25Z7LguJ9ayF6pFbV3FDS/WoicLGX4RDhw4di7I3FT2PcyUhXL9+3Qby73FRuQf3MdY/6e6H8x73chbazjy7Uqksy2pSuVzuNGlds2xXYhm4n451G1yOlK2iVO+uflXT8YUh5P6WtiqYmWyBlftyuXyNyZR3Ws7IyMiC5TnP1dPTsy1J8r0XzEwerKlXo+cJbWlbET0AJM2tQjf/z2p0dP97o3tTpQ+5u4LZT+8p9f920XNB88r9k7BarR5117vyHvdy5O5T9Vr88f37x48s13OG06FT8kIbn2D5uOuRmGUvHD2wv+XTWioTleFarf4aSUuuiQ5p5ODIRYP7GMN2KedKObGxVfsQ1u4qYnfRvd70AasklUqlnSqwqWT0qLGx/S2xyFf7zukfdY9NVQ7Y3ZV6eGPp1tKNRc8FzamQZa6R6tB7XNmXTKz+riQ3/VL1wPA/LOdznrK4wWWFNj7B8oiu++vxTN/I+Mjni57LchkdG36vpP9a9DxaTVbLTiz0mODansNUzjIzWYOrponF3GuCm5mCwqG8x22E1dNCO4zHLC55N6YoB7564Gjm9pvNVJVrpvmdNqot+VDRc0Fzyr3Bx5zTZ8LPdrTHrxfeRGMVcvco1+0j1aGGG1VdSEdinS7fIL6YtTT3+BU77f9+7O6xljj8txTDI/t/s7/Uf40UfqboubSKaL5g+UaXb89zQcbMlCVh4XMA5+O6uYjgte7WEpVygvmzij03ZU3TmXYxqtWhvyj3Dfy6pJ1Fz2WOuytNkp19e0pvGx0bef2lPFe5b+DNJn+x2yL6SbiiW3jtyMj+L0lSuTTwZ1L8YcnqkpRFvalaHf74AuN9TvJtmhlvXWVk+AcuZf54ssISVCcmhh4xedMdVlkVXLdXqkPvWZGnNt8SSGxuWTO9DvTeWjZdrty9POcwmtHwyPDPevS/KnoercJciwhKLdemUCZTjNZYvrPplryD1xij3KcfynXQBkUroOrRPK54pLDBG1TLzvyEu6aKnsecmfKYmUJIXtfX1/+8S3oy1zZZ0mUKNy70R7KdXo9nU3PNtT1YesPMvyc3JtKrLzZUX9/Aj6RpeptZ6DKFG9Ok7bpLmjvOq9AgbXh0+B3RswXLr2EJ6vGXViqwlyQPSWHl03Bp3D0qxneMjO5/zfj4eFPlkK6AWKkOvUJZ/HTRE2l2ZqZo8WsLPCxY0JZcJjTHJOlMozns25dvIovj7kftu9Ya5z3Mbyh2AuFIseMv3fj4+EMxq/160fOYbyY9x0KQvXtwcLDhTIzTj07dfqY2dfWZ2qmrz9ROXV2P0z/orsOSFGP8YC07c9Xcv03XT1/9raNP+ezcte4zuwjufto9xpCkt/X09FzwXF6I8c0zX4R9auZ6Ku+thMLScuYcezztu2JjPGCygt9sWpu7H3fTq0bGh5c9FWc+y/RMJSs5AlaCu381q8XXVg9WlvUMRrMbHht+fqm3/10hhF9VE7zfNa3Mvnqxf+7d1tuuaFvzXA7KskzV6tJrxpdKpS2mma6eOVf1evS41jR9H5fe3t4OydYV8PM5y9wb6jpctIf/7eEPb7vm2leYWX/Rc5nj7kqSZHttOvs7ST/ZyHNMPDBxXA/o7IJPd3f3uqS9rS6ZzOzEWHXsomckZpqSxftN9oCZvagtrHmLzrOCX761fL0lSSlGf0zyT5qFX2xkvlhY4ekVk5P7Tngte8XctzgsnXucVoh9IyPLn2P/JOY35F0KD5fC5J6NfPfk492XW2A/Z6Q6fHu9rjdTvvX83F1BftF0knhNbJd5viv3fvE5XUjIwjYp36o+kiTTo9PT/9L0wf0Zsy2Stxf1enD3GKO3UD+AJzz44IOnreY/30zvJWamGKNMelG5PPBry/Gcnac6z8aGLl9cnGjWmU2HN0oumf7T4OBgx5Me0xZm+u2Y3ynRl2QlFR7cS9LIgZGq6nq1uzf9G2Ozie53WaJnViqVXA5yeeHbuVgsd38sxux3K6OV8r333ntZf3muju//g5j5z7rrsaLn0nRcJ+S6aJqWu6emfNNy3KyhMphRtn1ZJ7JI5nr08OHDTZ+W06G2LSpwF8vMppVYy1TLOdfwweEHVIuvLXoe55rtVfH7pVKpkBx2d4XRiX1frWfZpJmFWi2+bP6/d3d3r3PpuZKkGD/m7qeLmOfloimCe0mqHBj6gOr2cgL8xfPo/y16rTw8PNzQh2Aj0iTdmtdY0kweq6RVe/BzpbjHT2Zeu2mkOvz/FD2XZlGp7v9wPZ7pc2+sdvpqFeUnzviZiwb3McZ2CyHXErjuOtLQhebbl3Uii+TyR6RFVBspmM3swBTWwMrl9VCLLblyP+dfj/7rez36nUXP40lMmy0mnypq8Nn//awkBddPdXd3n/0S2dbWdm0Swi2S6pVq5cNmi9wRQEOa6odbObD/I4rxT9xpQnMx7n7U69mvV6pDr65Wq7l9++3pGdw2k1uXa1rO/cMj+5+u6B8kdeviZg81Paqs/obK6PALG8lXXu3GxsYOV0aHfsA9ftTdeZ+RFKTjZ850XLTO/Zo167fnnorgaqhcopl933JPZTHc9c0ixl0qi9qsIs+fuKa/M/Wdlt5BO3z48LQ8vqnZFiPdXSEJXeXSwNuLmkM9y/7W3eXSXmnd5rm/D2p7QwhB7vpvc3+DldN0P93KWOX3PfrLCeSezN1jlH90OsSBynhlxSriXFAad+Z+CMv9UUkarg693OvZsz16Nb/BW0rd3d+q6bh7eGzkrUVPptlVRodfYu4vYRVfknTihvuGL7pyH7Ii6ns3eOjSlOvu4hPD+pEixl0y0zVF5oy7fHpycrLl860rY5Vhi/bGZsy/l+vXenv79xYxh/HxykGX35Mkybo1bfaLktTd3b0hBPuFLMuUTtsdRczrctN0wb0kjYwN/c1MfmxzfSsuirsrxhjd/U0jI0M/dSCn/PpztctvzLtqlUtnW5SPHBipVqpDfYrxv0oiX0+S5HX3ePDkqewZI9XhN1QmKi3VHKZAcbg6/PETU6E7uo83U/fJvLl07O8WSCdx+TNz3rGrmy89L7urq6vdPeeSnbNqsbGdhry5vJCdjSfYqtlRHB7b/44s+sGi5zHfbHnM9tT0twVO4vdNJgszvYzWtK39FTNT9PgP+yb2tfSuTatoyuBekkbHhz+eufrcNXI510F1+ZRcf5F57QeKzp+OspuVY6UcM5NCct+5fz9cHb7dLRuI0f/+cv0C6O7TLn0yKnthZXR4992ruCHVSjp0aN+xkdGhPW7ZS9x9vOj55G224+yXF3xg4l0rPpl53H3atPS87DRNU1POVX1m+YnpI0WMu1SmmWpChYw9c+jznqLGXwmxNv2aZss0cHdZSLaWSwOfUAFx3sjI0CezrP5QYklHX0//L8rspTHGqGgfynsul6umDe4lqVoduus7jz/278z875tp6ysvMfpdtfqZH6pUh145NjZ2pOj5mPzGPL9ozdSqjvef798qlcrBkerQS3wq7JHrskqt8OjDmdtNlZH9LxwZGfnswldgISMjIx+tjA7tqWX+cpdfNP98NYkxHq2MfnvBNC7z0JX3yn3wsOSVe7Mr2qWweeFHLr8Dkwda5ZDotUUNPLNgo0NFjb8Sqger4x6zv2qmGGVees7z+vrKL1v4iuXn0gejR4XE3hbMrjez45bGLxUxl8tRUwf3kjQ5OTk9PDL8kqweX+rRzxvorTKnPfqdUf7SkepQ9/j4eNO0MzfZllw/4E3yx2sXba4zcmjfPcOj+38gy+JrZtMrVt1KvrtL0b8Ro/9NLcQ9lerQQLW6/6I/FzRmbGzog7X6madnnr3V5fevxnQddz8u9zszz15TqQ5dKU0u+JqxYDmv9tr0yezkkoP7p1iWqoCV++hqmvfpRShs5V4y1aM12nW4aY2MjbwmxviVoucx3xPda8M7b711IPffeazpU5JOm9kmM+uM7ndWKuww56Xpg/s5I2NDH6nFM7sz99evxgBOUt09fqQetft0bepHR0aGPlL0hOYrlUpbXMq18UnMoqqT1UUdvBodG37viZOP/zu3bNCz7EtPlOVqce7jJn/J8als90h16D+MDQ9fdqkjeRsfHz8+Olp5w+kzU7vN/adcWiVpBH46Kr5juu67H/nWv/770dHKexdz1e7duzflXiXLfWpiYmLJqQ5ZkmxOkiTXz7WZn43uynPMSxGCFbKzIUlmUoxTqy64l6TM9fMuv+jB9LzNFsDY1N7u/6ic473Rg0MjPtuILoSgqVP2+jzHv9y1VDv28fHx45L+3/LNN3/Y13S+T2YlyTc203bYUrh7XaZHzTWeTdffODox2rSrsVazzZZammfMHH1pOzWzjZqqkp699+a9N9Q7/I/N1CPXZjMrrK7zUkTXCZM/Jted0exdo6NDqySwbD0TExPHJX1c0scH+gZuy+RvNFmXpM1m1vQLI+4eZXpMbt/wuv/5yIGhv2jkedqt/bosyyRpKqcAP5XU0CHF0FG/PsZEOS8AtQf3lnid9vT0bAsWlHmWexlYdw9ZFsOBAwdavlLO+VSrQ3eV+wb+2OVvkNQUccncl/Jg4YZyaeD9lZGhV0gLlxr/lr6lTbpyeuZ1FBZ4vE3HGCXpya+5LL7L2tJ312u16j33DB8+51+ju+d5jO+y0lLB/ZzK3Xc/LOknenr6u9oSe7F7fJVZcYeEliq6H1O0jwTzj9Vi7a6xsbGm79YX07g1KLRbTtG9melSVkz3373/q5J+slwuX5NF25m6nh/NXhwKKpN3Me4+JdOd8viZeqa7Hn9cX/na1yqXTd53KxgaHfq8pM/v2TO4PUniTvf4QpO9yMw2FT23c7n7Ay7/QnT9z5iFe8bH9x+5lOfLQvaA3AZDDLmkKHniIal7Q2kutVrtrjbTj8aQz1wlKWRZyCwrpILZUmVZdrxen36+FhHgrQSPcVX3lqiMDv1JeXf5k2Z2vcw3KxSfHWGS5C6T0t7e3rRarS74O5icnJwq95RfFZOwTqpdNJXGs/rvhyS8O5o9aaft347+2/+3dfPWw6drTz4759P+l0qzfdFpZrUSiv9quUzKPXt/zpN4h8mukZQ2y8ra7EpXXVLdpbtkelezpdwsRmnPwM9Y0Ify+rnOHAiqv6kyWvnD5Xzevt2791q69lVm/lyTdUhK3T3NY5VlNn87auZ+mPKoz8v11yPjQxyKbVE9PaUfaQvhVTL7sdndoVzup9n3lbl7Kcr0aCb7oGdn3tcMh+8BAMVZNcH9nN6b995gHfFHgtQtC7eY+40yy3WHYnY7/IhkX5H7PW4aazsZRvYd2ncsz3ksp1Jv/+tCCLl1vQshaLpee361Wvn0So3R19d3g1m6yzI9003XBek6D9om19ZLTeOZ6X5qj8j0iGbyDo8E19drmR9Ook9Sj3716evru8Fi2iXzHWb2/ZKum/1zjaR1lxLwu/tpSY9IekSmhz3a/fL4NQ92vz9e++piz6YAAFa/VRfcz9fd3Z2Gk2FDeOqa56bBf1wKzzGzFamk4B4PS/6FKPviqVMn7pyenj4+OTk5s6q2CvT37n2Xgv5zXuOFEHR6On7/paYULGXIwcHB8K1vfSts2LAhJFlynUKyw6TtHvz75NqoYBuluEHydOalY8ckTVvU0ZrFY4n7N+XpN6JNP/DQQzqyYcPxuHbt2jgxMTG3Yo/LS+jq6kpPnjwZtmzZvjFNp69zD9uDbEdwPd2l1EJIXbFTZvKodpMec/PHous7ieyomT90uqbJY8ceeai9vV1Pe9rT4r59+7ifAAAXtKqD+/Ppf1b/xtq62vWJ2q/3EH8wUdjmpo1yrTNpJk1DFmSzuXLudUl1mU1LftozHbcQH7Fo36yb39/uyeH9Y/vPPSiy6pR7+z9hIbwgr/Hcffr09NTTJyYm6GYHAACwSC15oPZSDN83fEzS+Oyf+cKOHTvSzZs3h1qtdjavvK2tLT722GPx6U9/ety3b/+qPgx0MW62PddvgqZHdL7T9wAAALigyy64v4h4+PDh6cOHz78If6G/v1xYzl0N3fWYCqroAAAA0KqaoqIMmltXV1d7kiQb8xzTzB7p7Oxk5R4AAGAJCO6xoI0bN16fd4fKGP3Rffv2sXIPAACwBAT3WJBFu2W2jXVuYwYTpSIBAACWiOAeC8piclOeq/aSFDN7MNcBAQAAVgGCeywopHFX7mO2ZQ/kPSYAAECrI7jHgky2K++V+1otOZLrgAAAAKsAwT0WZLJNeQb37q614/sfym1AAACAVYLgHhd1663910nK9TCtpKP7qHEPAACwZAT3uKg1iefavMrMJLfJPMcEAABYLQjucVGe2Pbcx1S8K+8xAQAAVgOCe1yUZ/b9eY5nZrLoh/IcEwAAYLUguMdFhWDb8hzPzGRm9+Q5JgAAwGpBcI8LGhwcTGW+Ne9xH/n2I1/Je0wAAIDVgOAeF3TmzJlUrs15jlmv1acOHz48neeYAAAAqwXBPS6oVqu1S8p35d50JNfxAAAAVhGCe1xMu5Tvyr1J38hzPAAAgNWE4B4X1N7evi5JknV5junOyj0AAECjCO5xQVnWdkPeY0bXg3mPCQAAsFoQ3OOCksR3uuc3nrsrhPhwfiMCAACsLgT3uKBguknKMbqXpjO3R/McEAAAYDUhuMeFZXaj57l0L9XbagT3AAAAjSK4x4UF35nvgDZdq9ceyXdMAACA1YPgHuc1ODiYJkkS8ly5N3n9sZOPPZbbgAAAAKsMwT3Oq3aydoMkmVluY7p0nO60AAAAjSO4x3lZml6fc769JN2f94AAAACrCcE9zitadn2e45mZ3O3ePMcEAABYbQjucV5B4Ydyzbc3k0Udym1AAACAVYjgHufl0nV5jmdmqin7Sp5jAgAArDYE93iSrq6udjNtyDvnfny8QloOAADAJSC4x5Ns2LChU67OPCvl1Ot1quQAAABcIoJ7PImZdUrakOug7pO5jgcAALAKEdzjSer10CmpM88xI2UwAQAALhnBPZ6k3bTBzNblNZ6ZyRQm8hoPAABgtUqLngCaUKaHPYnvMbf2+X8d5TJpo2Rx+Qbz4GaPZj79V8v3nAAAAAAAAAAAAAAAAAAAAAAAAAAAAAAAAAAAAAAAAAAAAAAAAAAAAAAAAAAAAAAAAAAAAAAAAAAAAAAAAAAAAAAAAAAAAAAAAAAAAAAAAAAAAAAAAAAAAAAAAAAAAAAAAAAAAAAAAAAAAAAAAAAAAAAAAAAAAAAAAAAAAAAAAAAAAAAAAAAAAAAAAAAAAAAAAAAAAAAAAAAAAAAAAAAAAAAAAAAAAAAAAAAAAAAAAAAAAAAAAAAAAAAAAAAAAAAAAAAAAAAAAAAAAAAAAAAAAAAAAAAAAAAAAAAAAAAAAAAAAAAAAAAAAAAAAAAAAAAAAAAAAAAAAAAAAAAAAAAAAAAAAAAAAAAAAAAAAAAAAAAAAAAAAAAAAAAAAAAAAAAAAAAAAAAAAAAAAAAAAAAAAAAAAAAAAAAAAAAAAAAAAAAAAAAAAAAAAAAAAAAAAAAAAAAAAAAAAAAAAAAAAAAAAAAAAAAAAAAAAAAAAAAAAAAAAAAAAAAAAAAAAAAAAAAAAAAAAAAAAAAAAAAAAAAAAAAAAAAAAAAAAAAAAAAAAAAAAAAAAAAAAAAAAAAAAAAAAAAAAAAAAAAAAAAAAAAAAAAAAAAAAAAAAAAAAAAAAAAAAAAAAAAAAAAAAAAAAAAAAAAAAAAAAAAAAAAAAAAAAAAAAAAAAAAAAAAAAAAAAAAAAAAAAAAAAAAAAAAAAAAAAAAAAAAAAAAAAAAAAAAAAAAAAAAAAAAAAAAAAAAAAAAAAAAAAAAAAAAAAAAAAAAAAAAAAAAAAAAAAAAAAAAAAAAAAAAAAAAAAAAAAAAAAAAAAAAAAAAAAAAAAAAAAAAAAAAAAAAAAAAAAAAAAAAAAAAAAAAAAAAAAAAAAAAAAAAAAAAAAAAAAAAAAAAAAAAAAAAAAAAAAAAAAAAAAAAAAAAAAAAAAAAAAAAAAAAAAAAAAAAAAAAAAAAAAAAAAAAAAAAAAAAAAAAAAAAAAAAAAAAAAAAAAAAAAAAAAAAAAAAAAAAAAAAAAAAAAAAAAAAAAAAAAAAAAAAAAAAAAAAAAAAAAAAAAAAAAAAAAAAAAAAAAAAAAAAAAAAAAAAAAAAAAAAAAAAAAAAAAAAAAAAAAAAAAAAAAAAAAAAAAAAAAAAAAAAAAAAAAAAAAAAAAAAAAAAAAAAAAAAAAAAAAAAAAAAAAAAAAAAAAAAAAAAAAAAAAAAAAAAAAAAAAAAAAAAAAAAAAAAAAAAAAAAAAAAAAAAAAAAAAAAAAAAAAAAAAAAAAAAAAAAAAAAAAAAAAAAAAAAAAAAAAAAAAAAAAAAAAAAAAAAAAAAAAAAAAAAAAAAAAAAAAAAAAAAAAAAAAAAAAAAAAAAAAAAAAAAAAAAAAAAAAAAAAAAAAAAAAAAAAAAAAAAAAAAAAAAAAAAAAAAAAAAAAAAAAAAAAAAAAAAAAAAAAAAAAAAAAAAAAAAAAAAAAAAAAAAAAAAAAAAAAAAAAAAAAAAAAAAAAAAAAAAAAAAAAAAAAAAAAAAAAAAAAAAAAAAAAAAAAAAAAAAAAAAAAAAAAAAAAAAAAAAAAKuOSfKiJwEAAADg0v3/Sn+ZWMw0b9cAAAAASUVORK5CYII=;imageBorder=#eaeaea;strokeWidth=4;imageBackground=#eaeaea;" parent="1" vertex="1">
          <mxGeometry x="159" y="831.07" width="78" height="75.12" as="geometry" />
        </mxCell>
        <mxCell id="1CBPzOkMhWDjjf77hLW--13" value="VPC" style="points=[[0,0],[0.25,0],[0.5,0],[0.75,0],[1,0],[1,0.25],[1,0.5],[1,0.75],[1,1],[0.75,1],[0.5,1],[0.25,1],[0,1],[0,0.75],[0,0.5],[0,0.25]];outlineConnect=0;gradientColor=none;html=1;whiteSpace=wrap;fontSize=12;fontStyle=0;container=1;pointerEvents=0;collapsible=0;recursiveResize=0;shape=mxgraph.aws4.group;grIcon=mxgraph.aws4.group_vpc;strokeColor=#248814;fillColor=none;verticalAlign=top;align=left;spacingLeft=30;fontColor=#AAB7B8;dashed=0;strokeWidth=2;" parent="1" vertex="1">
          <mxGeometry x="630" y="530" width="290" height="240" as="geometry" />
        </mxCell>
        <mxCell id="1CBPzOkMhWDjjf77hLW--15" value="&lt;div&gt;Amazon Opensearch&lt;/div&gt;&lt;div&gt;Service&lt;br&gt;&lt;/div&gt;" style="sketch=0;points=[[0,0,0],[0.25,0,0],[0.5,0,0],[0.75,0,0],[1,0,0],[0,1,0],[0.25,1,0],[0.5,1,0],[0.75,1,0],[1,1,0],[0,0.25,0],[0,0.5,0],[0,0.75,0],[1,0.25,0],[1,0.5,0],[1,0.75,0]];outlineConnect=0;fontColor=#232F3E;fillColor=#8C4FFF;strokeColor=#ffffff;dashed=0;verticalLabelPosition=bottom;verticalAlign=top;align=center;html=1;fontSize=12;fontStyle=0;aspect=fixed;shape=mxgraph.aws4.resourceIcon;resIcon=mxgraph.aws4.elasticsearch_service;" parent="1CBPzOkMhWDjjf77hLW--13" vertex="1">
          <mxGeometry x="60" y="81" width="78" height="78" as="geometry" />
        </mxCell>
        <mxCell id="1CBPzOkMhWDjjf77hLW--22" style="edgeStyle=orthogonalEdgeStyle;rounded=0;orthogonalLoop=1;jettySize=auto;html=1;exitX=1;exitY=0.5;exitDx=0;exitDy=0;exitPerimeter=0;entryX=0;entryY=0.5;entryDx=0;entryDy=0;entryPerimeter=0;" parent="1" source="1CBPzOkMhWDjjf77hLW--18" target="1CBPzOkMhWDjjf77hLW--15" edge="1">
          <mxGeometry relative="1" as="geometry" />
        </mxCell>
        <mxCell id="1CBPzOkMhWDjjf77hLW--18" value="&lt;div&gt;Amazon Opensearch&lt;/div&gt;&lt;div&gt;Ingestion Pipeline&lt;br&gt;&lt;/div&gt;" style="sketch=0;points=[[0,0,0],[0.25,0,0],[0.5,0,0],[0.75,0,0],[1,0,0],[0,1,0],[0.25,1,0],[0.5,1,0],[0.75,1,0],[1,1,0],[0,0.25,0],[0,0.5,0],[0,0.75,0],[1,0.25,0],[1,0.5,0],[1,0.75,0]];outlineConnect=0;fontColor=#232F3E;fillColor=#8C4FFF;strokeColor=#ffffff;dashed=0;verticalLabelPosition=bottom;verticalAlign=top;align=center;html=1;fontSize=12;fontStyle=0;aspect=fixed;shape=mxgraph.aws4.resourceIcon;resIcon=mxgraph.aws4.elasticsearch_service;" parent="1" vertex="1">
          <mxGeometry x="386" y="430" width="78" height="78" as="geometry" />
        </mxCell>
        <mxCell id="1CBPzOkMhWDjjf77hLW--19" style="edgeStyle=orthogonalEdgeStyle;rounded=0;orthogonalLoop=1;jettySize=auto;html=1;exitX=1;exitY=0.5;exitDx=0;exitDy=0;entryX=0;entryY=0.5;entryDx=0;entryDy=0;entryPerimeter=0;" parent="1" source="1CBPzOkMhWDjjf77hLW--4" target="1CBPzOkMhWDjjf77hLW--18" edge="1">
          <mxGeometry relative="1" as="geometry" />
        </mxCell>
        <mxCell id="1CBPzOkMhWDjjf77hLW--23" style="edgeStyle=orthogonalEdgeStyle;rounded=0;orthogonalLoop=1;jettySize=auto;html=1;entryX=0;entryY=0.5;entryDx=0;entryDy=0;entryPerimeter=0;" parent="1" source="1CBPzOkMhWDjjf77hLW--17" target="1CBPzOkMhWDjjf77hLW--15" edge="1">
          <mxGeometry relative="1" as="geometry" />
        </mxCell>
        <mxCell id="1CBPzOkMhWDjjf77hLW--24" style="edgeStyle=orthogonalEdgeStyle;rounded=0;orthogonalLoop=1;jettySize=auto;html=1;entryX=0;entryY=0.5;entryDx=0;entryDy=0;entryPerimeter=0;" parent="1" source="1CBPzOkMhWDjjf77hLW--16" target="1CBPzOkMhWDjjf77hLW--15" edge="1">
          <mxGeometry relative="1" as="geometry" />
        </mxCell>
        <mxCell id="1CBPzOkMhWDjjf77hLW--25" value="Observability &lt;font&gt;Collector&lt;/font&gt;" style="rounded=0;whiteSpace=wrap;html=1;fillColor=none;dashed=1;strokeColor=#8c4fff;strokeWidth=1;labelPosition=center;verticalLabelPosition=bottom;align=center;verticalAlign=top;fontColor=#8c4fff;fontStyle=0" parent="1" vertex="1">
          <mxGeometry x="330" y="1020" width="390" height="140" as="geometry" />
        </mxCell>
        <mxCell id="1CBPzOkMhWDjjf77hLW--28" value="Data engineers" style="sketch=0;outlineConnect=0;fontColor=#232F3E;gradientColor=none;fillColor=#232F3D;strokeColor=none;dashed=0;verticalLabelPosition=bottom;verticalAlign=top;align=center;html=1;fontSize=12;fontStyle=0;aspect=fixed;pointerEvents=1;shape=mxgraph.aws4.users;" parent="1" vertex="1">
          <mxGeometry x="1020" y="611" width="78" height="78" as="geometry" />
        </mxCell>
        <mxCell id="1CBPzOkMhWDjjf77hLW--32" style="edgeStyle=orthogonalEdgeStyle;rounded=0;orthogonalLoop=1;jettySize=auto;html=1;" parent="1" source="1CBPzOkMhWDjjf77hLW--30" target="1CBPzOkMhWDjjf77hLW--28" edge="1">
          <mxGeometry relative="1" as="geometry" />
        </mxCell>
        <mxCell id="1CBPzOkMhWDjjf77hLW--30" value="Dashboards" style="sketch=0;outlineConnect=0;fontColor=#232F3E;gradientColor=none;fillColor=#8C4FFF;strokeColor=none;dashed=0;verticalLabelPosition=bottom;verticalAlign=top;align=center;html=1;fontSize=12;fontStyle=0;aspect=fixed;pointerEvents=1;shape=mxgraph.aws4.opensearch_dashboards;" parent="1" vertex="1">
          <mxGeometry x="822" y="620.5" width="78" height="59" as="geometry" />
        </mxCell>
        <mxCell id="1CBPzOkMhWDjjf77hLW--31" style="edgeStyle=orthogonalEdgeStyle;rounded=0;orthogonalLoop=1;jettySize=auto;html=1;" parent="1" source="1CBPzOkMhWDjjf77hLW--15" target="1CBPzOkMhWDjjf77hLW--30" edge="1">
          <mxGeometry relative="1" as="geometry" />
        </mxCell>
        <mxCell id="1CBPzOkMhWDjjf77hLW--33" style="edgeStyle=orthogonalEdgeStyle;rounded=0;orthogonalLoop=1;jettySize=auto;html=1;exitX=0.5;exitY=1;exitDx=0;exitDy=0;entryX=0;entryY=0.5;entryDx=0;entryDy=0;dashed=1;strokeWidth=1;strokeColor=#8c4fff;endArrow=none;endFill=0;fontColor=#000000;fontStyle=0" parent="1" source="1CBPzOkMhWDjjf77hLW--8" target="1CBPzOkMhWDjjf77hLW--25" edge="1">
          <mxGeometry relative="1" as="geometry" />
        </mxCell>
        <mxCell id="1CBPzOkMhWDjjf77hLW--38" style="edgeStyle=orthogonalEdgeStyle;rounded=0;orthogonalLoop=1;jettySize=auto;html=1;strokeColor=#000000;fontColor=#000000;fontStyle=0" parent="1" source="1CBPzOkMhWDjjf77hLW--34" target="1CBPzOkMhWDjjf77hLW--37" edge="1">
          <mxGeometry relative="1" as="geometry" />
        </mxCell>
        <mxCell id="1CBPzOkMhWDjjf77hLW--34" value="Custom Log4j Appender" style="rounded=0;whiteSpace=wrap;html=1;strokeColor=#000000;fontColor=#000000;fontStyle=0" parent="1" vertex="1">
          <mxGeometry x="350" y="1036" width="149" height="40" as="geometry" />
        </mxCell>
        <mxCell id="1CBPzOkMhWDjjf77hLW--39" style="edgeStyle=orthogonalEdgeStyle;rounded=0;orthogonalLoop=1;jettySize=auto;html=1;entryX=0;entryY=0.5;entryDx=0;entryDy=0;strokeColor=#000000;fontColor=#000000;fontStyle=0" parent="1" source="1CBPzOkMhWDjjf77hLW--36" target="1CBPzOkMhWDjjf77hLW--37" edge="1">
          <mxGeometry relative="1" as="geometry" />
        </mxCell>
        <mxCell id="1CBPzOkMhWDjjf77hLW--36" value="Custom Spark Listener" style="rounded=0;whiteSpace=wrap;html=1;strokeColor=#000000;fontColor=#000000;fontStyle=0" parent="1" vertex="1">
          <mxGeometry x="350" y="1106" width="149" height="40" as="geometry" />
        </mxCell>
        <mxCell id="1CBPzOkMhWDjjf77hLW--37" value="&lt;div&gt;Amazon Opensearch Ingestion Pipeline&lt;/div&gt;&lt;div&gt;Client&lt;br&gt;&lt;/div&gt;" style="rounded=0;whiteSpace=wrap;html=1;strokeColor=#000000;fontColor=#000000;fontStyle=0" parent="1" vertex="1">
          <mxGeometry x="550" y="1063" width="150" height="50" as="geometry" />
        </mxCell>
        <mxCell id="1CBPzOkMhWDjjf77hLW--42" value="&lt;font color=&quot;#8c4fff&quot;&gt;Observability Backend&lt;/font&gt;" style="rounded=0;whiteSpace=wrap;html=1;fillColor=none;dashed=1;strokeColor=#8c4fff;strokeWidth=1;movable=1;resizable=1;rotatable=1;deletable=1;editable=1;locked=0;connectable=1;labelPosition=center;verticalLabelPosition=top;align=center;verticalAlign=bottom;" parent="1" vertex="1">
          <mxGeometry x="350" y="420" width="580" height="530" as="geometry" />
        </mxCell>
      </root>
    </mxGraphModel>
  </diagram>
  <diagram id="-BwiHHVV71LUiJhMG6i6" name="Page-2">
    <mxGraphModel dx="2954" dy="1154" grid="1" gridSize="10" guides="1" tooltips="1" connect="1" arrows="1" fold="1" page="1" pageScale="1" pageWidth="850" pageHeight="1100" math="0" shadow="0">
      <root>
        <mxCell id="0" />
        <mxCell id="1" parent="0" />
        <mxCell id="Kx3_oNwmJo61kvt8TgMC-1" value="Availability zone" style="sketch=0;outlineConnect=0;gradientColor=none;html=1;whiteSpace=wrap;fontSize=12;fontStyle=0;shape=mxgraph.aws4.group;grIcon=mxgraph.aws4.group_availability_zone;strokeColor=#545B64;fillColor=none;verticalAlign=top;align=left;spacingLeft=30;fontColor=#545B64;dashed=1;" vertex="1" parent="1">
          <mxGeometry x="280" y="440" width="1080" height="280" as="geometry" />
        </mxCell>
        <mxCell id="Kx3_oNwmJo61kvt8TgMC-2" value="Private subnet" style="points=[[0,0],[0.25,0],[0.5,0],[0.75,0],[1,0],[1,0.25],[1,0.5],[1,0.75],[1,1],[0.75,1],[0.5,1],[0.25,1],[0,1],[0,0.75],[0,0.5],[0,0.25]];outlineConnect=0;gradientColor=none;html=1;whiteSpace=wrap;fontSize=12;fontStyle=0;shape=mxgraph.aws4.group;grIcon=mxgraph.aws4.group_security_group;grStroke=0;strokeColor=#147EBA;fillColor=#E6F2F8;verticalAlign=top;align=left;spacingLeft=30;fontColor=#147EBA;dashed=0;" vertex="1" parent="1">
          <mxGeometry x="310" y="470" width="420" height="230" as="geometry" />
        </mxCell>
        <mxCell id="Kx3_oNwmJo61kvt8TgMC-3" value="Security group" style="fillColor=none;strokeColor=#DD3522;verticalAlign=top;fontStyle=0;fontColor=#DD3522;" vertex="1" parent="1">
          <mxGeometry x="470" y="470" width="210" height="230" as="geometry" />
        </mxCell>
        <mxCell id="Kx3_oNwmJo61kvt8TgMC-4" value="Availability zone" style="sketch=0;outlineConnect=0;gradientColor=none;html=1;whiteSpace=wrap;fontSize=12;fontStyle=0;shape=mxgraph.aws4.group;grIcon=mxgraph.aws4.group_availability_zone;strokeColor=#545B64;fillColor=none;verticalAlign=top;align=left;spacingLeft=30;fontColor=#545B64;dashed=1;" vertex="1" parent="1">
          <mxGeometry x="280" y="730" width="1080" height="280" as="geometry" />
        </mxCell>
        <mxCell id="Kx3_oNwmJo61kvt8TgMC-5" value="Availability zone" style="sketch=0;outlineConnect=0;gradientColor=none;html=1;whiteSpace=wrap;fontSize=12;fontStyle=0;shape=mxgraph.aws4.group;grIcon=mxgraph.aws4.group_availability_zone;strokeColor=#545B64;fillColor=none;verticalAlign=top;align=left;spacingLeft=30;fontColor=#545B64;dashed=1;" vertex="1" parent="1">
          <mxGeometry x="280" y="1020" width="1080" height="280" as="geometry" />
        </mxCell>
        <mxCell id="Kx3_oNwmJo61kvt8TgMC-6" value="Private subnet" style="points=[[0,0],[0.25,0],[0.5,0],[0.75,0],[1,0],[1,0.25],[1,0.5],[1,0.75],[1,1],[0.75,1],[0.5,1],[0.25,1],[0,1],[0,0.75],[0,0.5],[0,0.25]];outlineConnect=0;gradientColor=none;html=1;whiteSpace=wrap;fontSize=12;fontStyle=0;shape=mxgraph.aws4.group;grIcon=mxgraph.aws4.group_security_group;grStroke=0;strokeColor=#147EBA;fillColor=#E6F2F8;verticalAlign=top;align=left;spacingLeft=30;fontColor=#147EBA;dashed=0;" vertex="1" parent="1">
          <mxGeometry x="750" y="470" width="360" height="230" as="geometry" />
        </mxCell>
        <mxCell id="Kx3_oNwmJo61kvt8TgMC-7" value="Private subnet" style="points=[[0,0],[0.25,0],[0.5,0],[0.75,0],[1,0],[1,0.25],[1,0.5],[1,0.75],[1,1],[0.75,1],[0.5,1],[0.25,1],[0,1],[0,0.75],[0,0.5],[0,0.25]];outlineConnect=0;gradientColor=none;html=1;whiteSpace=wrap;fontSize=12;fontStyle=0;shape=mxgraph.aws4.group;grIcon=mxgraph.aws4.group_security_group;grStroke=0;strokeColor=#147EBA;fillColor=#E6F2F8;verticalAlign=top;align=left;spacingLeft=30;fontColor=#147EBA;dashed=0;" vertex="1" parent="1">
          <mxGeometry x="750" y="760" width="360" height="230" as="geometry" />
        </mxCell>
        <mxCell id="Kx3_oNwmJo61kvt8TgMC-8" value="Private subnet" style="points=[[0,0],[0.25,0],[0.5,0],[0.75,0],[1,0],[1,0.25],[1,0.5],[1,0.75],[1,1],[0.75,1],[0.5,1],[0.25,1],[0,1],[0,0.75],[0,0.5],[0,0.25]];outlineConnect=0;gradientColor=none;html=1;whiteSpace=wrap;fontSize=12;fontStyle=0;shape=mxgraph.aws4.group;grIcon=mxgraph.aws4.group_security_group;grStroke=0;strokeColor=#147EBA;fillColor=#E6F2F8;verticalAlign=top;align=left;spacingLeft=30;fontColor=#147EBA;dashed=0;" vertex="1" parent="1">
          <mxGeometry x="750" y="1050" width="360" height="230" as="geometry" />
        </mxCell>
        <mxCell id="Kx3_oNwmJo61kvt8TgMC-9" value="Security group" style="fillColor=none;strokeColor=#DD3522;verticalAlign=top;fontStyle=0;fontColor=#DD3522;" vertex="1" parent="1">
          <mxGeometry x="770" y="815" width="320" height="140" as="geometry" />
        </mxCell>
        <mxCell id="Kx3_oNwmJo61kvt8TgMC-10" value="Security group" style="fillColor=none;strokeColor=#DD3522;verticalAlign=top;fontStyle=0;fontColor=#DD3522;" vertex="1" parent="1">
          <mxGeometry x="770" y="1105" width="320" height="140" as="geometry" />
        </mxCell>
        <mxCell id="Kx3_oNwmJo61kvt8TgMC-11" value="Security group" style="fillColor=none;strokeColor=#DD3522;verticalAlign=top;fontStyle=0;fontColor=#DD3522;" vertex="1" parent="1">
          <mxGeometry x="770" y="525" width="320" height="140" as="geometry" />
        </mxCell>
        <mxCell id="Kx3_oNwmJo61kvt8TgMC-12" value="Public subnet" style="points=[[0,0],[0.25,0],[0.5,0],[0.75,0],[1,0],[1,0.25],[1,0.5],[1,0.75],[1,1],[0.75,1],[0.5,1],[0.25,1],[0,1],[0,0.75],[0,0.5],[0,0.25]];outlineConnect=0;gradientColor=none;html=1;whiteSpace=wrap;fontSize=12;fontStyle=0;shape=mxgraph.aws4.group;grIcon=mxgraph.aws4.group_security_group;grStroke=0;strokeColor=#248814;fillColor=#E9F3E6;verticalAlign=top;align=left;spacingLeft=30;fontColor=#248814;dashed=0;" vertex="1" parent="1">
          <mxGeometry x="1130" y="470" width="200" height="230" as="geometry" />
        </mxCell>
        <mxCell id="Kx3_oNwmJo61kvt8TgMC-13" style="edgeStyle=orthogonalEdgeStyle;rounded=0;orthogonalLoop=1;jettySize=auto;html=1;entryX=1;entryY=0.5;entryDx=0;entryDy=0;entryPerimeter=0;" edge="1" parent="1" source="Kx3_oNwmJo61kvt8TgMC-14" target="Kx3_oNwmJo61kvt8TgMC-16">
          <mxGeometry relative="1" as="geometry" />
        </mxCell>
        <mxCell id="Kx3_oNwmJo61kvt8TgMC-14" value="Data engineers" style="sketch=0;outlineConnect=0;fontColor=#232F3E;gradientColor=none;fillColor=#232F3D;strokeColor=none;dashed=0;verticalLabelPosition=top;verticalAlign=bottom;align=center;html=1;fontSize=12;fontStyle=0;aspect=fixed;pointerEvents=1;shape=mxgraph.aws4.users;labelPosition=center;" vertex="1" parent="1">
          <mxGeometry x="1430" y="556" width="78" height="78" as="geometry" />
        </mxCell>
        <mxCell id="Kx3_oNwmJo61kvt8TgMC-15" value="Security group" style="fillColor=none;strokeColor=#DD3522;verticalAlign=top;fontStyle=0;fontColor=#DD3522;" vertex="1" parent="1">
          <mxGeometry x="1150" y="510" width="160" height="170" as="geometry" />
        </mxCell>
        <mxCell id="Kx3_oNwmJo61kvt8TgMC-16" value="&lt;div&gt;EC2 auto scaing group&lt;/div&gt;&lt;div&gt;NGINX Reverse Proxy&lt;br&gt;&lt;/div&gt;" style="sketch=0;points=[[0,0,0],[0.25,0,0],[0.5,0,0],[0.75,0,0],[1,0,0],[0,1,0],[0.25,1,0],[0.5,1,0],[0.75,1,0],[1,1,0],[0,0.25,0],[0,0.5,0],[0,0.75,0],[1,0.25,0],[1,0.5,0],[1,0.75,0]];outlineConnect=0;fontColor=#232F3E;fillColor=#ED7100;strokeColor=#ffffff;dashed=0;verticalLabelPosition=bottom;verticalAlign=top;align=center;html=1;fontSize=12;fontStyle=0;aspect=fixed;shape=mxgraph.aws4.resourceIcon;resIcon=mxgraph.aws4.auto_scaling2;" vertex="1" parent="1">
          <mxGeometry x="1191" y="555.5" width="78" height="78" as="geometry" />
        </mxCell>
        <mxCell id="Kx3_oNwmJo61kvt8TgMC-17" style="edgeStyle=orthogonalEdgeStyle;rounded=0;orthogonalLoop=1;jettySize=auto;html=1;entryX=0;entryY=0.5;entryDx=0;entryDy=0;entryPerimeter=0;" edge="1" parent="1" source="Kx3_oNwmJo61kvt8TgMC-18" target="Kx3_oNwmJo61kvt8TgMC-16">
          <mxGeometry relative="1" as="geometry" />
        </mxCell>
        <mxCell id="Kx3_oNwmJo61kvt8TgMC-18" value="Opensearch Dashboards" style="sketch=0;outlineConnect=0;fontColor=#232F3E;gradientColor=none;fillColor=#8C4FFF;strokeColor=none;dashed=0;verticalLabelPosition=bottom;verticalAlign=top;align=center;html=1;fontSize=12;fontStyle=0;aspect=fixed;pointerEvents=1;shape=mxgraph.aws4.opensearch_dashboards;" vertex="1" parent="1">
          <mxGeometry x="980" y="565" width="78" height="59" as="geometry" />
        </mxCell>
        <mxCell id="Kx3_oNwmJo61kvt8TgMC-19" style="edgeStyle=orthogonalEdgeStyle;rounded=0;orthogonalLoop=1;jettySize=auto;html=1;" edge="1" parent="1" source="Kx3_oNwmJo61kvt8TgMC-20" target="Kx3_oNwmJo61kvt8TgMC-18">
          <mxGeometry relative="1" as="geometry" />
        </mxCell>
        <mxCell id="Kx3_oNwmJo61kvt8TgMC-20" value="Opensearch Domain" style="sketch=0;points=[[0,0,0],[0.25,0,0],[0.5,0,0],[0.75,0,0],[1,0,0],[0,1,0],[0.25,1,0],[0.5,1,0],[0.75,1,0],[1,1,0],[0,0.25,0],[0,0.5,0],[0,0.75,0],[1,0.25,0],[1,0.5,0],[1,0.75,0]];outlineConnect=0;fontColor=#232F3E;fillColor=#8C4FFF;strokeColor=#ffffff;dashed=0;verticalLabelPosition=bottom;verticalAlign=top;align=center;html=1;fontSize=12;fontStyle=0;aspect=fixed;shape=mxgraph.aws4.resourceIcon;resIcon=mxgraph.aws4.elasticsearch_service;" vertex="1" parent="1">
          <mxGeometry x="800" y="555.5" width="78" height="78" as="geometry" />
        </mxCell>
        <mxCell id="Kx3_oNwmJo61kvt8TgMC-21" value="Opensearch Dashboards" style="sketch=0;outlineConnect=0;fontColor=#232F3E;gradientColor=none;fillColor=#8C4FFF;strokeColor=none;dashed=0;verticalLabelPosition=bottom;verticalAlign=top;align=center;html=1;fontSize=12;fontStyle=0;aspect=fixed;pointerEvents=1;shape=mxgraph.aws4.opensearch_dashboards;" vertex="1" parent="1">
          <mxGeometry x="980" y="855" width="78" height="59" as="geometry" />
        </mxCell>
        <mxCell id="Kx3_oNwmJo61kvt8TgMC-22" style="edgeStyle=orthogonalEdgeStyle;rounded=0;orthogonalLoop=1;jettySize=auto;html=1;" edge="1" parent="1" source="Kx3_oNwmJo61kvt8TgMC-23" target="Kx3_oNwmJo61kvt8TgMC-18">
          <mxGeometry relative="1" as="geometry">
            <Array as="points">
              <mxPoint x="930" y="884" />
              <mxPoint x="930" y="595" />
            </Array>
          </mxGeometry>
        </mxCell>
        <mxCell id="Kx3_oNwmJo61kvt8TgMC-23" value="Opensearch Domain" style="sketch=0;points=[[0,0,0],[0.25,0,0],[0.5,0,0],[0.75,0,0],[1,0,0],[0,1,0],[0.25,1,0],[0.5,1,0],[0.75,1,0],[1,1,0],[0,0.25,0],[0,0.5,0],[0,0.75,0],[1,0.25,0],[1,0.5,0],[1,0.75,0]];outlineConnect=0;fontColor=#232F3E;fillColor=#8C4FFF;strokeColor=#ffffff;dashed=0;verticalLabelPosition=bottom;verticalAlign=top;align=center;html=1;fontSize=12;fontStyle=0;aspect=fixed;shape=mxgraph.aws4.resourceIcon;resIcon=mxgraph.aws4.elasticsearch_service;" vertex="1" parent="1">
          <mxGeometry x="800" y="845.5" width="78" height="78" as="geometry" />
        </mxCell>
        <mxCell id="Kx3_oNwmJo61kvt8TgMC-24" value="Opensearch Dashboards" style="sketch=0;outlineConnect=0;fontColor=#232F3E;gradientColor=none;fillColor=#8C4FFF;strokeColor=none;dashed=0;verticalLabelPosition=bottom;verticalAlign=top;align=center;html=1;fontSize=12;fontStyle=0;aspect=fixed;pointerEvents=1;shape=mxgraph.aws4.opensearch_dashboards;" vertex="1" parent="1">
          <mxGeometry x="980" y="1145" width="78" height="59" as="geometry" />
        </mxCell>
        <mxCell id="Kx3_oNwmJo61kvt8TgMC-25" style="edgeStyle=orthogonalEdgeStyle;rounded=0;orthogonalLoop=1;jettySize=auto;html=1;" edge="1" parent="1" source="Kx3_oNwmJo61kvt8TgMC-26" target="Kx3_oNwmJo61kvt8TgMC-18">
          <mxGeometry relative="1" as="geometry">
            <Array as="points">
              <mxPoint x="930" y="1174" />
              <mxPoint x="930" y="595" />
            </Array>
          </mxGeometry>
        </mxCell>
        <mxCell id="Kx3_oNwmJo61kvt8TgMC-26" value="Opensearch Domain" style="sketch=0;points=[[0,0,0],[0.25,0,0],[0.5,0,0],[0.75,0,0],[1,0,0],[0,1,0],[0.25,1,0],[0.5,1,0],[0.75,1,0],[1,1,0],[0,0.25,0],[0,0.5,0],[0,0.75,0],[1,0.25,0],[1,0.5,0],[1,0.75,0]];outlineConnect=0;fontColor=#232F3E;fillColor=#8C4FFF;strokeColor=#ffffff;dashed=0;verticalLabelPosition=bottom;verticalAlign=top;align=center;html=1;fontSize=12;fontStyle=0;aspect=fixed;shape=mxgraph.aws4.resourceIcon;resIcon=mxgraph.aws4.elasticsearch_service;" vertex="1" parent="1">
          <mxGeometry x="800" y="1135.5" width="78" height="78" as="geometry" />
        </mxCell>
        <mxCell id="Kx3_oNwmJo61kvt8TgMC-27" style="edgeStyle=orthogonalEdgeStyle;rounded=0;orthogonalLoop=1;jettySize=auto;html=1;entryX=0;entryY=0.5;entryDx=0;entryDy=0;entryPerimeter=0;" edge="1" parent="1" source="Kx3_oNwmJo61kvt8TgMC-28" target="Kx3_oNwmJo61kvt8TgMC-20">
          <mxGeometry relative="1" as="geometry" />
        </mxCell>
        <mxCell id="Kx3_oNwmJo61kvt8TgMC-28" value="&lt;div&gt;Opensearch Ingestion Pipeline&lt;/div&gt;&lt;div&gt;Metrics&lt;br&gt;&lt;/div&gt;" style="sketch=0;points=[[0,0,0],[0.25,0,0],[0.5,0,0],[0.75,0,0],[1,0,0],[0,1,0],[0.25,1,0],[0.5,1,0],[0.75,1,0],[1,1,0],[0,0.25,0],[0,0.5,0],[0,0.75,0],[1,0.25,0],[1,0.5,0],[1,0.75,0]];outlineConnect=0;fontColor=#232F3E;fillColor=#8C4FFF;strokeColor=#ffffff;dashed=0;verticalLabelPosition=bottom;verticalAlign=top;align=center;html=1;fontSize=12;fontStyle=0;aspect=fixed;shape=mxgraph.aws4.resourceIcon;resIcon=mxgraph.aws4.elasticsearch_service;" vertex="1" parent="1">
          <mxGeometry x="540" y="498" width="64.5" height="64.5" as="geometry" />
        </mxCell>
        <mxCell id="Kx3_oNwmJo61kvt8TgMC-29" style="edgeStyle=orthogonalEdgeStyle;rounded=0;orthogonalLoop=1;jettySize=auto;html=1;" edge="1" parent="1" source="Kx3_oNwmJo61kvt8TgMC-30" target="Kx3_oNwmJo61kvt8TgMC-20">
          <mxGeometry relative="1" as="geometry" />
        </mxCell>
        <mxCell id="Kx3_oNwmJo61kvt8TgMC-30" value="&lt;div&gt;Opensearch Ingestion Pipeline&lt;/div&gt;&lt;div&gt;Logs&lt;br&gt;&lt;/div&gt;" style="sketch=0;points=[[0,0,0],[0.25,0,0],[0.5,0,0],[0.75,0,0],[1,0,0],[0,1,0],[0.25,1,0],[0.5,1,0],[0.75,1,0],[1,1,0],[0,0.25,0],[0,0.5,0],[0,0.75,0],[1,0.25,0],[1,0.5,0],[1,0.75,0]];outlineConnect=0;fontColor=#232F3E;fillColor=#8C4FFF;strokeColor=#ffffff;dashed=0;verticalLabelPosition=bottom;verticalAlign=top;align=center;html=1;fontSize=12;fontStyle=0;aspect=fixed;shape=mxgraph.aws4.resourceIcon;resIcon=mxgraph.aws4.elasticsearch_service;" vertex="1" parent="1">
          <mxGeometry x="541" y="600.5" width="64.5" height="64.5" as="geometry" />
        </mxCell>
        <mxCell id="Kx3_oNwmJo61kvt8TgMC-31" style="edgeStyle=orthogonalEdgeStyle;rounded=0;orthogonalLoop=1;jettySize=auto;html=1;entryX=0;entryY=0.5;entryDx=0;entryDy=0;entryPerimeter=0;" edge="1" parent="1" source="Kx3_oNwmJo61kvt8TgMC-33" target="Kx3_oNwmJo61kvt8TgMC-28">
          <mxGeometry relative="1" as="geometry" />
        </mxCell>
        <mxCell id="Kx3_oNwmJo61kvt8TgMC-32" style="edgeStyle=orthogonalEdgeStyle;rounded=0;orthogonalLoop=1;jettySize=auto;html=1;" edge="1" parent="1" source="Kx3_oNwmJo61kvt8TgMC-33">
          <mxGeometry relative="1" as="geometry">
            <mxPoint x="540" y="630" as="targetPoint" />
          </mxGeometry>
        </mxCell>
        <mxCell id="Kx3_oNwmJo61kvt8TgMC-33" value="&lt;div&gt;EMR Serverless&lt;/div&gt;&lt;div&gt;Application&lt;br&gt;&lt;/div&gt;" style="sketch=0;points=[[0,0,0],[0.25,0,0],[0.5,0,0],[0.75,0,0],[1,0,0],[0,1,0],[0.25,1,0],[0.5,1,0],[0.75,1,0],[1,1,0],[0,0.25,0],[0,0.5,0],[0,0.75,0],[1,0.25,0],[1,0.5,0],[1,0.75,0]];outlineConnect=0;fontColor=#232F3E;fillColor=#8C4FFF;strokeColor=#ffffff;dashed=0;verticalLabelPosition=bottom;verticalAlign=top;align=center;html=1;fontSize=12;fontStyle=0;aspect=fixed;shape=mxgraph.aws4.resourceIcon;resIcon=mxgraph.aws4.emr;" vertex="1" parent="1">
          <mxGeometry x="350" y="556" width="78" height="78" as="geometry" />
        </mxCell>
        <mxCell id="Kx3_oNwmJo61kvt8TgMC-34" value="Private subnet" style="points=[[0,0],[0.25,0],[0.5,0],[0.75,0],[1,0],[1,0.25],[1,0.5],[1,0.75],[1,1],[0.75,1],[0.5,1],[0.25,1],[0,1],[0,0.75],[0,0.5],[0,0.25]];outlineConnect=0;gradientColor=none;html=1;whiteSpace=wrap;fontSize=12;fontStyle=0;shape=mxgraph.aws4.group;grIcon=mxgraph.aws4.group_security_group;grStroke=0;strokeColor=#147EBA;fillColor=#E6F2F8;verticalAlign=top;align=left;spacingLeft=30;fontColor=#147EBA;dashed=0;" vertex="1" parent="1">
          <mxGeometry x="310" y="760" width="420" height="230" as="geometry" />
        </mxCell>
        <mxCell id="Kx3_oNwmJo61kvt8TgMC-35" value="Security group" style="fillColor=none;strokeColor=#DD3522;verticalAlign=top;fontStyle=0;fontColor=#DD3522;" vertex="1" parent="1">
          <mxGeometry x="470" y="760" width="210" height="230" as="geometry" />
        </mxCell>
        <mxCell id="Kx3_oNwmJo61kvt8TgMC-36" style="edgeStyle=orthogonalEdgeStyle;rounded=0;orthogonalLoop=1;jettySize=auto;html=1;entryX=0;entryY=0.5;entryDx=0;entryDy=0;entryPerimeter=0;" edge="1" parent="1" source="Kx3_oNwmJo61kvt8TgMC-37" target="Kx3_oNwmJo61kvt8TgMC-23">
          <mxGeometry relative="1" as="geometry" />
        </mxCell>
        <mxCell id="Kx3_oNwmJo61kvt8TgMC-37" value="&lt;div&gt;Opensearch Ingestion Pipeline&lt;/div&gt;&lt;div&gt;Metrics&lt;br&gt;&lt;/div&gt;" style="sketch=0;points=[[0,0,0],[0.25,0,0],[0.5,0,0],[0.75,0,0],[1,0,0],[0,1,0],[0.25,1,0],[0.5,1,0],[0.75,1,0],[1,1,0],[0,0.25,0],[0,0.5,0],[0,0.75,0],[1,0.25,0],[1,0.5,0],[1,0.75,0]];outlineConnect=0;fontColor=#232F3E;fillColor=#8C4FFF;strokeColor=#ffffff;dashed=0;verticalLabelPosition=bottom;verticalAlign=top;align=center;html=1;fontSize=12;fontStyle=0;aspect=fixed;shape=mxgraph.aws4.resourceIcon;resIcon=mxgraph.aws4.elasticsearch_service;" vertex="1" parent="1">
          <mxGeometry x="540" y="788" width="64.5" height="64.5" as="geometry" />
        </mxCell>
        <mxCell id="Kx3_oNwmJo61kvt8TgMC-38" style="edgeStyle=orthogonalEdgeStyle;rounded=0;orthogonalLoop=1;jettySize=auto;html=1;entryX=0;entryY=0.5;entryDx=0;entryDy=0;entryPerimeter=0;" edge="1" parent="1" source="Kx3_oNwmJo61kvt8TgMC-39" target="Kx3_oNwmJo61kvt8TgMC-20">
          <mxGeometry relative="1" as="geometry" />
        </mxCell>
        <mxCell id="Kx3_oNwmJo61kvt8TgMC-39" value="&lt;div&gt;Opensearch Ingestion Pipeline&lt;/div&gt;&lt;div&gt;Logs&lt;br&gt;&lt;/div&gt;" style="sketch=0;points=[[0,0,0],[0.25,0,0],[0.5,0,0],[0.75,0,0],[1,0,0],[0,1,0],[0.25,1,0],[0.5,1,0],[0.75,1,0],[1,1,0],[0,0.25,0],[0,0.5,0],[0,0.75,0],[1,0.25,0],[1,0.5,0],[1,0.75,0]];outlineConnect=0;fontColor=#232F3E;fillColor=#8C4FFF;strokeColor=#ffffff;dashed=0;verticalLabelPosition=bottom;verticalAlign=top;align=center;html=1;fontSize=12;fontStyle=0;aspect=fixed;shape=mxgraph.aws4.resourceIcon;resIcon=mxgraph.aws4.elasticsearch_service;" vertex="1" parent="1">
          <mxGeometry x="541" y="890.5" width="64.5" height="64.5" as="geometry" />
        </mxCell>
        <mxCell id="Kx3_oNwmJo61kvt8TgMC-40" style="edgeStyle=orthogonalEdgeStyle;rounded=0;orthogonalLoop=1;jettySize=auto;html=1;entryX=0;entryY=0.5;entryDx=0;entryDy=0;entryPerimeter=0;" edge="1" parent="1" source="Kx3_oNwmJo61kvt8TgMC-42" target="Kx3_oNwmJo61kvt8TgMC-37">
          <mxGeometry relative="1" as="geometry" />
        </mxCell>
        <mxCell id="Kx3_oNwmJo61kvt8TgMC-41" style="edgeStyle=orthogonalEdgeStyle;rounded=0;orthogonalLoop=1;jettySize=auto;html=1;" edge="1" parent="1" source="Kx3_oNwmJo61kvt8TgMC-42">
          <mxGeometry relative="1" as="geometry">
            <mxPoint x="540" y="920" as="targetPoint" />
          </mxGeometry>
        </mxCell>
        <mxCell id="Kx3_oNwmJo61kvt8TgMC-42" value="&lt;div&gt;EMR Serverless&lt;/div&gt;&lt;div&gt;Application&lt;br&gt;&lt;/div&gt;" style="sketch=0;points=[[0,0,0],[0.25,0,0],[0.5,0,0],[0.75,0,0],[1,0,0],[0,1,0],[0.25,1,0],[0.5,1,0],[0.75,1,0],[1,1,0],[0,0.25,0],[0,0.5,0],[0,0.75,0],[1,0.25,0],[1,0.5,0],[1,0.75,0]];outlineConnect=0;fontColor=#232F3E;fillColor=#8C4FFF;strokeColor=#ffffff;dashed=0;verticalLabelPosition=bottom;verticalAlign=top;align=center;html=1;fontSize=12;fontStyle=0;aspect=fixed;shape=mxgraph.aws4.resourceIcon;resIcon=mxgraph.aws4.emr;" vertex="1" parent="1">
          <mxGeometry x="350" y="846" width="78" height="78" as="geometry" />
        </mxCell>
        <mxCell id="Kx3_oNwmJo61kvt8TgMC-43" value="Private subnet" style="points=[[0,0],[0.25,0],[0.5,0],[0.75,0],[1,0],[1,0.25],[1,0.5],[1,0.75],[1,1],[0.75,1],[0.5,1],[0.25,1],[0,1],[0,0.75],[0,0.5],[0,0.25]];outlineConnect=0;gradientColor=none;html=1;whiteSpace=wrap;fontSize=12;fontStyle=0;shape=mxgraph.aws4.group;grIcon=mxgraph.aws4.group_security_group;grStroke=0;strokeColor=#147EBA;fillColor=#E6F2F8;verticalAlign=top;align=left;spacingLeft=30;fontColor=#147EBA;dashed=0;" vertex="1" parent="1">
          <mxGeometry x="310" y="1050" width="420" height="230" as="geometry" />
        </mxCell>
        <mxCell id="Kx3_oNwmJo61kvt8TgMC-44" value="Security group" style="fillColor=none;strokeColor=#DD3522;verticalAlign=top;fontStyle=0;fontColor=#DD3522;" vertex="1" parent="1">
          <mxGeometry x="470" y="1050" width="210" height="230" as="geometry" />
        </mxCell>
        <mxCell id="Kx3_oNwmJo61kvt8TgMC-45" style="edgeStyle=orthogonalEdgeStyle;rounded=0;orthogonalLoop=1;jettySize=auto;html=1;entryX=0;entryY=0.5;entryDx=0;entryDy=0;entryPerimeter=0;" edge="1" parent="1" source="Kx3_oNwmJo61kvt8TgMC-46" target="Kx3_oNwmJo61kvt8TgMC-26">
          <mxGeometry relative="1" as="geometry" />
        </mxCell>
        <mxCell id="Kx3_oNwmJo61kvt8TgMC-46" value="&lt;div&gt;Opensearch Ingestion Pipeline&lt;/div&gt;&lt;div&gt;Metrics&lt;br&gt;&lt;/div&gt;" style="sketch=0;points=[[0,0,0],[0.25,0,0],[0.5,0,0],[0.75,0,0],[1,0,0],[0,1,0],[0.25,1,0],[0.5,1,0],[0.75,1,0],[1,1,0],[0,0.25,0],[0,0.5,0],[0,0.75,0],[1,0.25,0],[1,0.5,0],[1,0.75,0]];outlineConnect=0;fontColor=#232F3E;fillColor=#8C4FFF;strokeColor=#ffffff;dashed=0;verticalLabelPosition=bottom;verticalAlign=top;align=center;html=1;fontSize=12;fontStyle=0;aspect=fixed;shape=mxgraph.aws4.resourceIcon;resIcon=mxgraph.aws4.elasticsearch_service;" vertex="1" parent="1">
          <mxGeometry x="540" y="1078" width="64.5" height="64.5" as="geometry" />
        </mxCell>
        <mxCell id="Kx3_oNwmJo61kvt8TgMC-47" style="edgeStyle=orthogonalEdgeStyle;rounded=0;orthogonalLoop=1;jettySize=auto;html=1;entryX=0;entryY=0.5;entryDx=0;entryDy=0;entryPerimeter=0;" edge="1" parent="1" source="Kx3_oNwmJo61kvt8TgMC-48" target="Kx3_oNwmJo61kvt8TgMC-20">
          <mxGeometry relative="1" as="geometry" />
        </mxCell>
        <mxCell id="Kx3_oNwmJo61kvt8TgMC-48" value="&lt;div&gt;Opensearch Ingestion Pipeline&lt;/div&gt;&lt;div&gt;Logs&lt;br&gt;&lt;/div&gt;" style="sketch=0;points=[[0,0,0],[0.25,0,0],[0.5,0,0],[0.75,0,0],[1,0,0],[0,1,0],[0.25,1,0],[0.5,1,0],[0.75,1,0],[1,1,0],[0,0.25,0],[0,0.5,0],[0,0.75,0],[1,0.25,0],[1,0.5,0],[1,0.75,0]];outlineConnect=0;fontColor=#232F3E;fillColor=#8C4FFF;strokeColor=#ffffff;dashed=0;verticalLabelPosition=bottom;verticalAlign=top;align=center;html=1;fontSize=12;fontStyle=0;aspect=fixed;shape=mxgraph.aws4.resourceIcon;resIcon=mxgraph.aws4.elasticsearch_service;" vertex="1" parent="1">
          <mxGeometry x="541" y="1180.5" width="64.5" height="64.5" as="geometry" />
        </mxCell>
        <mxCell id="Kx3_oNwmJo61kvt8TgMC-49" style="edgeStyle=orthogonalEdgeStyle;rounded=0;orthogonalLoop=1;jettySize=auto;html=1;entryX=0;entryY=0.5;entryDx=0;entryDy=0;entryPerimeter=0;" edge="1" parent="1" source="Kx3_oNwmJo61kvt8TgMC-51" target="Kx3_oNwmJo61kvt8TgMC-46">
          <mxGeometry relative="1" as="geometry" />
        </mxCell>
        <mxCell id="Kx3_oNwmJo61kvt8TgMC-50" style="edgeStyle=orthogonalEdgeStyle;rounded=0;orthogonalLoop=1;jettySize=auto;html=1;" edge="1" parent="1" source="Kx3_oNwmJo61kvt8TgMC-51">
          <mxGeometry relative="1" as="geometry">
            <mxPoint x="540" y="1210" as="targetPoint" />
          </mxGeometry>
        </mxCell>
        <mxCell id="Kx3_oNwmJo61kvt8TgMC-51" value="&lt;div&gt;EMR Serverless&lt;/div&gt;&lt;div&gt;Application&lt;br&gt;&lt;/div&gt;" style="sketch=0;points=[[0,0,0],[0.25,0,0],[0.5,0,0],[0.75,0,0],[1,0,0],[0,1,0],[0.25,1,0],[0.5,1,0],[0.75,1,0],[1,1,0],[0,0.25,0],[0,0.5,0],[0,0.75,0],[1,0.25,0],[1,0.5,0],[1,0.75,0]];outlineConnect=0;fontColor=#232F3E;fillColor=#8C4FFF;strokeColor=#ffffff;dashed=0;verticalLabelPosition=bottom;verticalAlign=top;align=center;html=1;fontSize=12;fontStyle=0;aspect=fixed;shape=mxgraph.aws4.resourceIcon;resIcon=mxgraph.aws4.emr;" vertex="1" parent="1">
          <mxGeometry x="350" y="1136" width="78" height="78" as="geometry" />
        </mxCell>
      </root>
    </mxGraphModel>
  </diagram>
</mxfile>
